<svg xmlns="http://www.w3.org/2000/svg" xmlns:xlink="http://www.w3.org/1999/xlink" width="100" zoomAndPan="magnify" viewBox="0 0 75 74.999997" height="100" preserveAspectRatio="xMidYMid meet" version="1.0"><defs><clipPath id="0c33339a38"><path d="M 49 36 L 73.425781 36 L 73.425781 61 L 49 61 Z M 49 36 " clip-rule="nonzero"/></clipPath><clipPath id="875205ce53"><path d="M 1.425781 12 L 57 12 L 57 67 L 1.425781 67 Z M 1.425781 12 " clip-rule="nonzero"/></clipPath></defs><path fill="#000000" d="M 50.230469 54.125 C 49.125 54.832031 48.019531 55.542969 46.816406 56.148438 C 46.3125 55.847656 45.8125 55.644531 45.308594 55.339844 C 44.808594 55.035156 44.207031 55.238281 43.902344 55.746094 C 43.601562 56.25 43.804688 56.859375 44.304688 57.160156 C 45.007812 57.566406 45.710938 57.972656 46.414062 58.375 C 46.714844 58.578125 47.117188 58.578125 47.417969 58.375 C 48.824219 57.667969 50.230469 56.859375 51.433594 55.945312 C 51.9375 55.644531 52.039062 54.933594 51.738281 54.53125 C 51.636719 54.328125 51.335938 54.125 51.035156 54.125 C 50.734375 53.921875 50.429688 53.921875 50.230469 54.125 Z M 50.230469 54.125 " fill-opacity="1" fill-rule="nonzero"/><path fill="#000000" d="M 56.757812 17.585938 C 56.253906 17.386719 55.652344 17.6875 55.453125 18.195312 C 55.25 18.699219 55.550781 19.308594 56.054688 19.511719 L 64.1875 22.34375 L 64.1875 28.621094 C 64.1875 30.339844 64.089844 32.0625 63.886719 33.578125 C 63.785156 34.1875 64.1875 34.691406 64.789062 34.792969 C 65.394531 34.894531 65.894531 34.488281 65.996094 33.882812 C 66.195312 32.160156 66.398438 30.441406 66.398438 28.621094 L 66.398438 21.636719 C 66.398438 21.230469 66.097656 20.828125 65.695312 20.625 Z M 56.757812 17.585938 " fill-opacity="1" fill-rule="nonzero"/><path fill="#000000" d="M 54.546875 58.476562 C 52.238281 60.300781 49.628906 61.816406 46.816406 63.335938 C 45.007812 62.324219 43.199219 61.3125 41.59375 60.199219 C 41.09375 59.894531 40.488281 59.996094 40.1875 60.5 C 39.886719 61.007812 39.988281 61.613281 40.488281 61.917969 C 42.398438 63.132812 44.304688 64.347656 46.414062 65.460938 C 46.714844 65.664062 47.117188 65.664062 47.417969 65.460938 C 50.429688 63.839844 53.242188 62.121094 55.855469 60.097656 C 56.355469 59.792969 56.457031 59.085938 56.054688 58.578125 C 55.652344 58.273438 54.949219 58.171875 54.546875 58.476562 Z M 54.546875 58.476562 " fill-opacity="1" fill-rule="nonzero"/><path fill="#000000" d="M 46.414062 7.164062 L 22.617188 15.765625 C 22.214844 15.867188 21.914062 16.273438 21.914062 16.777344 L 21.914062 26.191406 C 21.914062 28.519531 22.011719 30.644531 22.3125 32.769531 C 22.414062 33.375 22.917969 33.78125 23.519531 33.679688 C 24.121094 33.578125 24.523438 33.074219 24.421875 32.464844 C 24.121094 30.441406 24.019531 28.316406 24.019531 26.089844 L 24.019531 17.484375 L 46.816406 9.1875 L 70.414062 17.484375 L 70.414062 26.089844 C 70.414062 31.453125 69.609375 36.109375 68.207031 40.257812 C 68.003906 40.765625 68.304688 41.371094 68.808594 41.574219 C 69.308594 41.777344 69.914062 41.472656 70.113281 40.96875 C 71.621094 36.515625 72.421875 31.554688 72.421875 26.089844 L 72.421875 16.675781 C 72.421875 16.273438 72.121094 15.867188 71.71875 15.664062 L 47.117188 7.164062 C 46.917969 7.0625 46.714844 7.0625 46.414062 7.164062 Z M 46.414062 7.164062 " fill-opacity="1" fill-rule="nonzero"/><g clip-path="url(#0c33339a38)"><path fill="#000000" d="M 59.667969 38.539062 L 63.585938 38.539062 L 63.585938 45.421875 C 63.585938 46.027344 64.089844 46.433594 64.589844 46.433594 L 71.417969 46.433594 L 71.417969 50.277344 L 64.589844 50.277344 C 63.988281 50.277344 63.585938 50.785156 63.585938 51.292969 L 63.585938 58.171875 L 59.769531 58.171875 L 59.769531 51.292969 C 59.769531 50.683594 59.269531 50.277344 58.765625 50.277344 L 51.9375 50.277344 L 51.9375 46.433594 L 58.765625 46.433594 C 59.367188 46.433594 59.769531 45.925781 59.769531 45.421875 L 59.769531 38.539062 Z M 58.664062 36.515625 C 58.0625 36.515625 57.660156 37.019531 57.660156 37.527344 L 57.660156 44.410156 L 50.832031 44.410156 C 50.230469 44.410156 49.828125 44.914062 49.828125 45.421875 L 49.828125 51.390625 C 49.828125 52 50.332031 52.40625 50.832031 52.40625 L 57.5625 52.40625 L 57.5625 59.285156 C 57.5625 59.894531 58.0625 60.300781 58.566406 60.300781 L 64.589844 60.300781 C 65.191406 60.300781 65.59375 59.792969 65.59375 59.285156 L 65.59375 52.40625 L 72.421875 52.40625 C 73.023438 52.40625 73.425781 51.898438 73.425781 51.390625 L 73.425781 45.421875 C 73.425781 44.8125 72.925781 44.410156 72.421875 44.410156 L 65.59375 44.410156 L 65.59375 37.527344 C 65.59375 36.917969 65.09375 36.515625 64.589844 36.515625 Z M 58.664062 36.515625 " fill-opacity="1" fill-rule="nonzero"/></g><g clip-path="url(#875205ce53)"><path fill="#000000" d="M 15.988281 15.765625 L 16.589844 17.992188 C 16.789062 18.902344 16.1875 19.207031 15.6875 19.613281 C 15.386719 19.8125 15.183594 20.21875 15.183594 20.523438 L 15.386719 23.253906 C 15.484375 24.570312 15.285156 24.671875 14.382812 25.886719 L 12.070312 29.023438 C 11.769531 29.429688 11.769531 29.933594 12.070312 30.339844 C 15.585938 34.691406 19.804688 37.019531 23.117188 39.550781 C 26.429688 42.082031 28.742188 44.710938 29.242188 50.078125 C 29.445312 51.59375 30.949219 50.988281 30.847656 49.875 C 30.546875 46.027344 29.644531 43.296875 27.738281 41.070312 C 28.339844 37.527344 29.84375 35.601562 31.855469 34.289062 C 32.355469 35.199219 32.957031 36.109375 33.761719 36.816406 C 34.867188 37.929688 35.769531 36.515625 34.964844 35.601562 C 32.15625 32.464844 31.753906 26.292969 34.867188 21.535156 C 38.882812 15.460938 47.621094 14.652344 51.738281 20.117188 C 54.949219 24.367188 55.25 27.910156 54.246094 30.949219 C 53.242188 33.882812 50.933594 36.3125 48.824219 37.828125 C 47.21875 38.941406 45.914062 40.664062 45.308594 43.496094 C 44.003906 49.875 42.398438 52.304688 40.789062 54.023438 C 39.183594 55.746094 37.375 56.960938 36.070312 60.300781 C 34.664062 63.839844 28.742188 65.867188 24.121094 60.90625 C 15.082031 51.089844 8.859375 42.285156 4.039062 29.933594 C 3.433594 28.417969 3.433594 28.011719 3.433594 25.785156 L 3.535156 17.386719 C 3.535156 16.574219 4.339844 16.273438 4.941406 16.171875 L 13.878906 14.753906 C 15.082031 14.652344 15.785156 15.058594 15.988281 15.765625 Z M 14.28125 12.628906 C 14.078125 12.628906 13.878906 12.628906 13.679688 12.730469 C 10.664062 13.234375 7.652344 13.640625 4.742188 14.144531 C 3.9375 14.246094 3.132812 14.652344 2.53125 15.257812 C 1.929688 15.867188 1.425781 16.574219 1.425781 17.484375 L 1.425781 25.886719 C 1.425781 28.214844 1.425781 29.125 2.128906 30.847656 C 7.050781 43.398438 13.578125 52.503906 22.617188 62.425781 C 28.039062 68.292969 35.972656 66.269531 37.980469 61.210938 C 39.183594 58.273438 40.589844 57.464844 42.398438 55.542969 C 44.207031 53.617188 46.011719 50.683594 47.316406 44.003906 C 47.820312 41.574219 48.722656 40.5625 50.03125 39.652344 C 52.441406 37.929688 55.050781 35.300781 56.253906 31.757812 C 57.460938 28.214844 56.957031 23.761719 53.445312 19.003906 C 48.421875 12.324219 37.878906 13.335938 33.160156 20.523438 C 30.648438 24.265625 30.046875 28.722656 31.152344 32.464844 C 28.839844 33.882812 26.933594 36.109375 26.03125 39.449219 C 25.527344 38.941406 24.925781 38.539062 24.324219 38.03125 C 21.007812 35.503906 17.292969 33.277344 14.179688 29.632812 L 15.886719 27.304688 C 16.789062 26.089844 17.394531 24.976562 17.292969 23.253906 L 17.191406 21.027344 C 17.59375 20.726562 17.996094 20.523438 18.296875 20.015625 C 18.699219 19.308594 18.800781 18.5 18.5 17.585938 L 17.996094 15.257812 C 17.695312 14.144531 16.992188 13.4375 16.1875 13.03125 C 15.585938 12.730469 14.882812 12.628906 14.28125 12.628906 Z M 14.28125 12.628906 " fill-opacity="1" fill-rule="nonzero"/></g></svg>