<svg xmlns="http://www.w3.org/2000/svg" xmlns:xlink="http://www.w3.org/1999/xlink" width="100" zoomAndPan="magnify" viewBox="0 0 75 74.999997" height="100" preserveAspectRatio="xMidYMid meet" version="1.0"><defs><clipPath id="25e0d77a17"><path d="M 27 1.898438 L 47 1.898438 L 47 47 L 27 47 Z M 27 1.898438 " clip-rule="nonzero"/></clipPath><clipPath id="19532e7a8f"><path d="M 35 24 L 73 24 L 73 73.148438 L 35 73.148438 Z M 35 24 " clip-rule="nonzero"/></clipPath><clipPath id="6fe5f37743"><path d="M 2 24 L 38 24 L 38 73.148438 L 2 73.148438 Z M 2 24 " clip-rule="nonzero"/></clipPath></defs><path fill="#000000" d="M 58.890625 32.28125 C 58.757812 32.28125 58.621094 32.246094 58.5 32.175781 C 58.125 31.960938 58 31.484375 58.214844 31.113281 C 59.675781 28.59375 62.921875 27.726562 65.453125 29.179688 C 65.828125 29.394531 65.957031 29.871094 65.738281 30.242188 C 65.523438 30.613281 65.046875 30.742188 64.671875 30.527344 C 62.886719 29.5 60.597656 30.113281 59.566406 31.890625 C 59.421875 32.140625 59.160156 32.28125 58.890625 32.28125 Z M 45.445312 68.9375 C 44.527344 68.9375 43.625 68.699219 42.8125 68.230469 C 42.4375 68.015625 42.3125 67.539062 42.527344 67.167969 C 42.742188 66.796875 43.21875 66.667969 43.59375 66.882812 C 44.453125 67.378906 45.460938 67.507812 46.429688 67.25 C 47.398438 66.992188 48.203125 66.378906 48.699219 65.523438 C 48.914062 65.152344 49.394531 65.023438 49.765625 65.238281 C 50.140625 65.453125 50.269531 65.929688 50.050781 66.300781 C 49.347656 67.515625 48.203125 68.386719 46.832031 68.753906 C 46.375 68.875 45.90625 68.9375 45.445312 68.9375 Z M 45.445312 68.9375 " fill-opacity="1" fill-rule="evenodd"/><path fill="#000000" d="M 61.6875 53.828125 C 61.554688 53.828125 61.421875 53.792969 61.296875 53.722656 L 46.1875 45.035156 C 45.816406 44.820312 45.6875 44.347656 45.902344 43.972656 C 46.117188 43.601562 46.59375 43.472656 46.96875 43.6875 L 62.078125 52.375 C 62.453125 52.589844 62.578125 53.066406 62.363281 53.4375 C 62.21875 53.6875 61.957031 53.828125 61.6875 53.828125 Z M 61.6875 53.828125 " fill-opacity="1" fill-rule="evenodd"/><path fill="#000000" d="M 32.617188 12.121094 C 32.1875 12.121094 31.835938 11.773438 31.835938 11.34375 C 31.835938 8.433594 34.214844 6.066406 37.136719 6.066406 C 37.566406 6.066406 37.917969 6.414062 37.917969 6.84375 C 37.917969 7.273438 37.566406 7.621094 37.136719 7.621094 C 35.074219 7.621094 33.398438 9.292969 33.398438 11.34375 C 33.398438 11.773438 33.046875 12.121094 32.617188 12.121094 Z M 37.136719 51.15625 C 36.707031 51.15625 36.355469 50.808594 36.355469 50.378906 C 36.355469 49.949219 36.707031 49.601562 37.136719 49.601562 C 39.199219 49.601562 40.875 47.929688 40.875 45.878906 C 40.875 45.449219 41.226562 45.101562 41.65625 45.101562 C 42.085938 45.101562 42.4375 45.449219 42.4375 45.878906 C 42.4375 48.789062 40.058594 51.15625 37.136719 51.15625 Z M 37.136719 51.15625 " fill-opacity="1" fill-rule="evenodd"/><path fill="#000000" d="M 45.859375 29.390625 L 28.414062 29.390625 C 27.980469 29.390625 27.632812 29.039062 27.632812 28.609375 C 27.632812 28.183594 27.980469 27.832031 28.414062 27.832031 L 45.859375 27.832031 C 46.292969 27.832031 46.640625 28.183594 46.640625 28.609375 C 46.640625 29.039062 46.292969 29.390625 45.859375 29.390625 Z M 45.859375 29.390625 " fill-opacity="1" fill-rule="evenodd"/><g clip-path="url(#25e0d77a17)"><path fill="#000000" d="M 45.859375 46.378906 C 45.429688 46.378906 45.078125 46.03125 45.078125 45.601562 L 45.078125 11.34375 C 45.078125 6.984375 41.515625 3.433594 37.136719 3.433594 C 32.757812 3.433594 29.195312 6.984375 29.195312 11.34375 L 29.195312 45.335938 C 29.195312 45.765625 28.84375 46.113281 28.414062 46.113281 C 27.980469 46.113281 27.632812 45.765625 27.632812 45.335938 L 27.632812 11.34375 C 27.632812 6.125 31.894531 1.878906 37.136719 1.878906 C 42.378906 1.878906 46.640625 6.125 46.640625 11.34375 L 46.640625 45.601562 C 46.640625 46.03125 46.292969 46.378906 45.859375 46.378906 Z M 45.859375 46.378906 " fill-opacity="1" fill-rule="evenodd"/></g><path fill="#000000" d="M 12.507812 53.421875 C 12.238281 53.421875 11.972656 53.285156 11.828125 53.035156 C 11.613281 52.664062 11.742188 52.1875 12.117188 51.972656 L 27.226562 43.285156 C 27.597656 43.070312 28.074219 43.199219 28.292969 43.570312 C 28.507812 43.941406 28.378906 44.417969 28.003906 44.632812 L 12.898438 53.316406 C 12.773438 53.390625 12.640625 53.421875 12.507812 53.421875 Z M 12.507812 53.421875 " fill-opacity="1" fill-rule="evenodd"/><g clip-path="url(#19532e7a8f)"><path fill="#000000" d="M 62.816406 25.84375 C 60.070312 25.84375 57.394531 27.261719 55.925781 29.796875 L 38.585938 59.707031 C 37.527344 61.527344 37.25 63.660156 37.800781 65.703125 C 38.351562 67.75 39.664062 69.457031 41.492188 70.511719 C 43.316406 71.558594 45.457031 71.835938 47.515625 71.285156 C 49.574219 70.738281 51.285156 69.433594 52.339844 67.613281 L 69.683594 37.707031 C 71.871094 33.929688 70.566406 29.082031 66.773438 26.902344 C 65.527344 26.183594 64.164062 25.84375 62.816406 25.84375 Z M 45.421875 73.117188 C 43.78125 73.117188 42.164062 72.691406 40.710938 71.855469 C 38.519531 70.597656 36.953125 68.554688 36.292969 66.109375 C 35.632812 63.660156 35.96875 61.109375 37.230469 58.929688 L 54.574219 29.019531 C 57.195312 24.5 63.019531 22.945312 67.554688 25.554688 C 72.09375 28.164062 73.65625 33.964844 71.035156 38.484375 L 53.695312 68.394531 C 52.429688 70.570312 50.378906 72.132812 47.917969 72.789062 C 47.09375 73.011719 46.253906 73.117188 45.421875 73.117188 Z M 45.421875 73.117188 " fill-opacity="1" fill-rule="evenodd"/></g><path fill="#000000" d="M 15.382812 32.28125 C 15.113281 32.28125 14.851562 32.140625 14.707031 31.890625 C 13.675781 30.113281 11.386719 29.5 9.601562 30.527344 C 9.226562 30.742188 8.75 30.617188 8.535156 30.242188 C 8.316406 29.871094 8.445312 29.394531 8.820312 29.179688 C 10.042969 28.476562 11.46875 28.292969 12.839844 28.660156 C 14.210938 29.023438 15.355469 29.894531 16.058594 31.113281 C 16.273438 31.484375 16.148438 31.960938 15.773438 32.175781 C 15.652344 32.246094 15.515625 32.28125 15.382812 32.28125 Z M 28.828125 68.9375 C 28.367188 68.9375 27.898438 68.875 27.441406 68.753906 C 26.070312 68.386719 24.925781 67.515625 24.21875 66.300781 C 24.003906 65.929688 24.132812 65.453125 24.507812 65.238281 C 24.878906 65.023438 25.359375 65.152344 25.574219 65.523438 C 26.070312 66.378906 26.875 66.992188 27.84375 67.25 C 28.8125 67.507812 29.820312 67.378906 30.679688 66.882812 C 31.054688 66.671875 31.53125 66.796875 31.746094 67.167969 C 31.960938 67.539062 31.835938 68.015625 31.460938 68.230469 C 30.648438 68.699219 29.746094 68.9375 28.828125 68.9375 Z M 28.828125 68.9375 " fill-opacity="1" fill-rule="evenodd"/><g clip-path="url(#6fe5f37743)"><path fill="#000000" d="M 28.9375 73.003906 C 28.109375 73.003906 27.269531 72.898438 26.445312 72.675781 C 23.984375 72.019531 21.933594 70.457031 20.667969 68.277344 L 3.328125 38.371094 C 2.0625 36.1875 1.730469 33.640625 2.386719 31.191406 C 3.046875 28.742188 4.617188 26.703125 6.804688 25.441406 C 11.34375 22.835938 17.167969 24.386719 19.789062 28.90625 L 37.128906 58.816406 C 37.464844 59.394531 37.738281 60.003906 37.941406 60.640625 C 38.074219 61.046875 37.847656 61.484375 37.4375 61.617188 C 37.027344 61.75 36.589844 61.523438 36.457031 61.117188 C 36.285156 60.585938 36.058594 60.074219 35.777344 59.59375 L 18.4375 29.683594 C 16.246094 25.90625 11.378906 24.609375 7.585938 26.789062 C 5.757812 27.839844 4.449219 29.546875 3.898438 31.59375 C 3.347656 33.640625 3.625 35.773438 4.679688 37.59375 L 22.023438 67.5 C 23.074219 69.320312 24.789062 70.625 26.847656 71.171875 C 28.90625 71.722656 31.042969 71.445312 32.871094 70.398438 C 34.546875 69.433594 35.804688 67.890625 36.421875 66.054688 C 36.558594 65.644531 37 65.425781 37.410156 65.5625 C 37.820312 65.695312 38.039062 66.136719 37.902344 66.542969 C 37.167969 68.742188 35.65625 70.589844 33.652344 71.746094 C 32.199219 72.578125 30.582031 73.003906 28.9375 73.003906 Z M 28.9375 73.003906 " fill-opacity="1" fill-rule="evenodd"/></g></svg>