<svg xmlns="http://www.w3.org/2000/svg" xmlns:xlink="http://www.w3.org/1999/xlink" width="100" zoomAndPan="magnify" viewBox="0 0 75 74.999997" height="100" preserveAspectRatio="xMidYMid meet" version="1.0"><defs><clipPath id="aa49d03086"><path d="M 1.089844 18 L 23 18 L 23 48 L 1.089844 48 Z M 1.089844 18 " clip-rule="nonzero"/></clipPath><clipPath id="5322aeadae"><path d="M 52 18 L 73.839844 18 L 73.839844 48 L 52 48 Z M 52 18 " clip-rule="nonzero"/></clipPath><clipPath id="aee45b6c06"><path d="M 19 8.605469 L 55 8.605469 L 55 67.855469 L 19 67.855469 Z M 19 8.605469 " clip-rule="nonzero"/></clipPath></defs><g clip-path="url(#aa49d03086)"><path fill="#000000" d="M 2.761719 43.300781 C 5.363281 45.863281 8.699219 47.175781 12.09375 47.175781 C 14.128906 47.175781 16.109375 46.71875 17.976562 45.75 C 19.222656 46.777344 20.636719 47.347656 22.164062 47.574219 L 21.878906 45.238281 C 21.257812 45.125 20.636719 44.839844 20.070312 44.496094 C 20.238281 44.382812 20.410156 44.210938 20.578125 44.097656 C 21.03125 43.699219 21.144531 42.960938 20.75 42.503906 C 20.351562 42.046875 19.617188 41.933594 19.164062 42.332031 C 14.753906 46.035156 8.417969 45.75 4.34375 41.648438 C 4.289062 41.59375 4.289062 41.59375 4.230469 41.535156 C 3.777344 41.191406 3.382812 40.90625 3.664062 37.433594 C 4.175781 32.535156 6.265625 25.410156 8.8125 21.824219 C 9.265625 21.195312 10.058594 21.082031 10.453125 21.082031 L 15.148438 21.082031 C 15.769531 21.082031 16.167969 21.480469 16.167969 22.164062 L 16.167969 24.785156 C 16.167969 25.355469 15.828125 25.980469 15.09375 25.980469 L 13.734375 25.980469 C 13.621094 25.980469 13.507812 25.925781 13.453125 25.867188 L 12.941406 25.355469 L 13.054688 25.355469 C 13.675781 25.355469 14.1875 24.898438 14.242188 24.273438 C 14.242188 23.644531 13.789062 23.132812 13.167969 23.078125 L 12.320312 23.019531 C 11.414062 22.960938 10.511719 23.417969 10.113281 24.273438 C 8.246094 27.917969 7.792969 30.425781 8.132812 35.496094 C 8.132812 35.496094 8.132812 35.554688 8.132812 35.554688 C 8.132812 35.609375 8.132812 35.609375 8.132812 35.667969 C 8.132812 35.722656 8.132812 35.722656 8.191406 35.78125 C 8.191406 35.835938 8.191406 35.835938 8.246094 35.894531 C 8.246094 35.953125 8.304688 35.953125 8.304688 36.007812 C 8.304688 36.007812 8.359375 36.066406 8.359375 36.066406 C 8.359375 36.121094 8.417969 36.121094 8.472656 36.179688 C 8.472656 36.179688 8.472656 36.238281 8.53125 36.238281 C 8.585938 36.292969 8.585938 36.292969 8.644531 36.351562 C 8.644531 36.351562 8.699219 36.40625 8.699219 36.40625 C 8.757812 36.464844 8.8125 36.464844 8.871094 36.464844 C 8.871094 36.464844 8.871094 36.464844 8.925781 36.464844 C 9.039062 36.519531 9.207031 36.519531 9.320312 36.519531 C 9.320312 36.519531 9.378906 36.519531 9.378906 36.519531 C 9.378906 36.519531 9.433594 36.519531 9.433594 36.519531 C 9.492188 36.519531 9.492188 36.519531 9.546875 36.519531 C 9.605469 36.519531 9.605469 36.519531 9.660156 36.464844 C 9.71875 36.464844 9.71875 36.464844 9.773438 36.40625 C 9.832031 36.40625 9.832031 36.351562 9.886719 36.351562 C 9.945312 36.351562 9.945312 36.292969 10 36.292969 C 10.058594 36.292969 10.058594 36.238281 10.113281 36.238281 C 10.113281 36.238281 10.171875 36.238281 10.171875 36.179688 C 12.375 33.957031 15.996094 33.957031 18.203125 36.179688 C 18.429688 36.40625 18.710938 36.519531 18.996094 36.519531 C 19.277344 36.519531 19.5625 36.40625 19.785156 36.179688 C 20.183594 35.78125 20.238281 35.152344 19.898438 34.699219 C 20.183594 34.527344 20.464844 34.355469 20.75 34.242188 L 20.464844 31.90625 C 19.5625 32.25 18.769531 32.648438 18.035156 33.273438 C 15.65625 31.964844 12.773438 31.964844 10.398438 33.21875 C 10.339844 30.484375 10.679688 28.773438 11.414062 26.949219 L 11.925781 27.464844 C 12.433594 27.976562 13.113281 28.261719 13.847656 28.261719 L 15.203125 28.261719 C 17.070312 28.261719 18.542969 26.78125 18.542969 24.785156 L 18.542969 22.164062 C 18.542969 20.226562 17.183594 18.804688 15.261719 18.804688 L 10.566406 18.804688 C 9.097656 18.804688 7.851562 19.429688 7.058594 20.457031 C 4.230469 24.445312 2.082031 32.019531 1.515625 37.148438 C 1.121094 40.851562 1.460938 42.21875 2.761719 43.300781 Z M 2.761719 43.300781 " fill-opacity="1" fill-rule="nonzero"/></g><g clip-path="url(#5322aeadae)"><path fill="#000000" d="M 68.09375 20.511719 C 67.359375 19.429688 66.058594 18.859375 64.589844 18.859375 L 59.894531 18.859375 C 57.96875 18.859375 56.613281 20.285156 56.613281 22.222656 L 56.613281 24.84375 C 56.613281 26.835938 58.027344 28.316406 59.949219 28.316406 L 61.308594 28.316406 C 62.042969 28.316406 62.722656 28.03125 63.230469 27.519531 L 63.738281 27.007812 C 64.53125 28.832031 64.8125 30.539062 64.757812 33.273438 C 62.382812 31.964844 59.496094 32.019531 57.121094 33.332031 C 56.386719 32.761719 55.59375 32.304688 54.6875 31.964844 L 54.40625 34.300781 C 54.6875 34.414062 54.972656 34.585938 55.253906 34.753906 C 54.914062 35.210938 54.972656 35.835938 55.367188 36.238281 C 55.820312 36.691406 56.5 36.691406 56.953125 36.238281 C 59.15625 34.015625 62.777344 34.015625 64.984375 36.238281 C 64.984375 36.238281 65.039062 36.238281 65.039062 36.292969 C 65.097656 36.292969 65.097656 36.351562 65.152344 36.351562 C 65.210938 36.351562 65.210938 36.40625 65.265625 36.40625 C 65.324219 36.40625 65.324219 36.464844 65.378906 36.464844 C 65.4375 36.464844 65.4375 36.519531 65.492188 36.519531 C 65.550781 36.519531 65.550781 36.519531 65.605469 36.578125 C 65.664062 36.578125 65.664062 36.578125 65.71875 36.578125 C 65.71875 36.578125 65.777344 36.578125 65.777344 36.578125 C 65.777344 36.578125 65.832031 36.578125 65.832031 36.578125 C 66.003906 36.578125 66.117188 36.519531 66.230469 36.519531 C 66.230469 36.519531 66.285156 36.519531 66.285156 36.519531 C 66.339844 36.519531 66.398438 36.464844 66.453125 36.464844 C 66.453125 36.464844 66.511719 36.40625 66.511719 36.40625 C 66.566406 36.351562 66.566406 36.351562 66.625 36.292969 C 66.625 36.292969 66.625 36.238281 66.679688 36.238281 C 66.738281 36.179688 66.738281 36.179688 66.792969 36.121094 C 66.792969 36.121094 66.851562 36.066406 66.851562 36.066406 C 66.851562 36.007812 66.90625 36.007812 66.90625 35.953125 C 66.90625 35.894531 66.90625 35.894531 66.964844 35.835938 C 66.964844 35.78125 66.964844 35.78125 67.019531 35.722656 C 67.019531 35.667969 67.019531 35.667969 67.019531 35.609375 C 67.019531 35.609375 67.019531 35.554688 67.019531 35.554688 C 67.359375 30.484375 66.90625 27.976562 65.039062 24.328125 C 64.644531 23.53125 63.738281 23.019531 62.890625 23.078125 L 62.042969 23.132812 C 61.421875 23.132812 60.910156 23.703125 60.96875 24.328125 C 60.96875 24.957031 61.535156 25.46875 62.15625 25.410156 L 62.324219 25.410156 L 61.816406 25.925781 C 61.761719 25.980469 61.648438 26.039062 61.535156 26.039062 L 60.175781 26.039062 C 59.441406 26.039062 59.101562 25.46875 59.101562 24.84375 L 59.101562 22.222656 C 59.101562 21.539062 59.496094 21.140625 60.121094 21.140625 L 64.8125 21.140625 C 65.265625 21.140625 66.003906 21.253906 66.453125 21.878906 C 69 25.410156 71.035156 32.589844 71.601562 37.488281 C 71.828125 40.964844 71.433594 41.25 71.035156 41.59375 C 70.980469 41.59375 70.980469 41.648438 70.921875 41.707031 C 66.964844 45.636719 60.742188 46.035156 56.328125 42.558594 C 55.59375 42.105469 54.859375 42.21875 54.460938 42.675781 C 54.066406 43.128906 54.179688 43.871094 54.632812 44.269531 C 54.6875 44.328125 54.800781 44.382812 54.859375 44.441406 C 54.292969 44.78125 53.671875 45.066406 53.046875 45.179688 L 52.765625 47.515625 C 54.238281 47.347656 55.707031 46.71875 56.953125 45.75 C 58.816406 46.664062 60.796875 47.175781 62.835938 47.175781 C 66.230469 47.175781 69.621094 45.863281 72.167969 43.300781 C 73.527344 42.277344 73.808594 40.851562 73.582031 37.261719 C 73.074219 32.132812 70.921875 24.5 68.09375 20.511719 Z M 68.09375 20.511719 " fill-opacity="1" fill-rule="nonzero"/></g><g clip-path="url(#aee45b6c06)"><path fill="#000000" d="M 20.183594 27.179688 L 19.957031 28.316406 C 19.898438 28.660156 19.957031 29 20.183594 29.285156 C 20.410156 29.570312 20.691406 29.683594 21.03125 29.683594 L 22.277344 29.683594 L 26.574219 65.863281 C 26.746094 67 27.707031 67.855469 28.835938 67.855469 L 46.089844 67.855469 C 47.222656 67.855469 48.183594 67 48.351562 65.863281 L 52.652344 29.683594 L 53.898438 29.683594 C 54.238281 29.683594 54.574219 29.515625 54.746094 29.285156 C 54.972656 29 55.027344 28.660156 54.972656 28.316406 L 54.746094 27.179688 C 54.347656 25.128906 53.046875 23.476562 51.351562 22.507812 C 50.445312 17.722656 46.9375 14.019531 42.019531 12.652344 L 42.019531 10.882812 C 42.019531 9.632812 41 8.605469 39.753906 8.605469 L 35.230469 8.605469 C 33.984375 8.605469 32.96875 9.632812 32.96875 10.882812 L 32.96875 12.652344 C 28.046875 14.019531 24.539062 17.722656 23.578125 22.5625 C 21.878906 23.476562 20.578125 25.183594 20.183594 27.179688 Z M 46.089844 65.578125 L 28.835938 65.578125 L 24.59375 29.683594 L 50.332031 29.683594 Z M 51.632812 27.40625 L 22.503906 27.40625 C 23.011719 25.410156 24.820312 23.988281 26.859375 23.988281 L 48.128906 23.988281 C 50.21875 23.988281 51.972656 25.410156 52.484375 27.40625 Z M 32.96875 15.042969 L 32.96875 17.722656 C 32.96875 18.347656 33.476562 18.859375 34.097656 18.859375 C 34.71875 18.859375 35.230469 18.347656 35.230469 17.722656 L 35.230469 10.882812 L 39.753906 10.882812 L 39.753906 17.722656 C 39.753906 18.347656 40.265625 18.859375 40.886719 18.859375 C 41.507812 18.859375 42.019531 18.347656 42.019531 17.722656 L 42.019531 15.042969 C 45.355469 16.183594 47.789062 18.574219 48.863281 21.765625 C 48.636719 21.765625 48.410156 21.707031 48.128906 21.707031 L 26.859375 21.707031 C 26.632812 21.707031 26.40625 21.707031 26.121094 21.765625 C 27.195312 18.574219 29.628906 16.183594 32.96875 15.042969 Z M 32.96875 15.042969 " fill-opacity="1" fill-rule="nonzero"/></g><path fill="#000000" d="M 37.492188 16.582031 C 38.113281 16.582031 38.625 16.070312 38.625 15.441406 L 38.625 13.164062 C 38.625 12.535156 38.113281 12.023438 37.492188 12.023438 C 36.871094 12.023438 36.359375 12.535156 36.359375 13.164062 L 36.359375 15.441406 C 36.359375 16.070312 36.871094 16.582031 37.492188 16.582031 Z M 37.492188 16.582031 " fill-opacity="1" fill-rule="nonzero"/><path fill="#000000" d="M 30.703125 35.382812 L 34.15625 35.382812 C 34.777344 35.382812 35.285156 34.871094 35.285156 34.242188 C 35.285156 33.617188 34.777344 33.101562 34.15625 33.101562 L 30.703125 33.101562 C 30.082031 33.101562 29.574219 33.617188 29.574219 34.242188 C 29.574219 34.871094 30.082031 35.382812 30.703125 35.382812 Z M 30.703125 35.382812 " fill-opacity="1" fill-rule="nonzero"/><path fill="#000000" d="M 30.703125 39.941406 L 32.96875 39.941406 C 33.589844 39.941406 34.097656 39.425781 34.097656 38.800781 C 34.097656 38.171875 33.589844 37.660156 32.96875 37.660156 L 30.703125 37.660156 C 30.082031 37.660156 29.574219 38.171875 29.574219 38.800781 C 29.574219 39.425781 30.082031 39.941406 30.703125 39.941406 Z M 30.703125 39.941406 " fill-opacity="1" fill-rule="nonzero"/><path fill="#000000" d="M 30.703125 44.496094 L 34.15625 44.496094 C 34.777344 44.496094 35.285156 43.984375 35.285156 43.359375 C 35.285156 42.730469 34.777344 42.21875 34.15625 42.21875 L 30.703125 42.21875 C 30.082031 42.21875 29.574219 42.730469 29.574219 43.359375 C 29.574219 43.984375 30.082031 44.496094 30.703125 44.496094 Z M 30.703125 44.496094 " fill-opacity="1" fill-rule="nonzero"/><path fill="#000000" d="M 30.703125 49.054688 L 32.96875 49.054688 C 33.589844 49.054688 34.097656 48.542969 34.097656 47.914062 C 34.097656 47.289062 33.589844 46.777344 32.96875 46.777344 L 30.703125 46.777344 C 30.082031 46.777344 29.574219 47.289062 29.574219 47.914062 C 29.574219 48.542969 30.082031 49.054688 30.703125 49.054688 Z M 30.703125 49.054688 " fill-opacity="1" fill-rule="nonzero"/><path fill="#000000" d="M 30.703125 53.613281 L 34.15625 53.613281 C 34.777344 53.613281 35.285156 53.101562 35.285156 52.472656 C 35.285156 51.847656 34.777344 51.332031 34.15625 51.332031 L 30.703125 51.332031 C 30.082031 51.332031 29.574219 51.847656 29.574219 52.472656 C 29.574219 53.101562 30.082031 53.613281 30.703125 53.613281 Z M 30.703125 53.613281 " fill-opacity="1" fill-rule="nonzero"/><path fill="#000000" d="M 30.703125 62.726562 L 34.15625 62.726562 C 34.777344 62.726562 35.285156 62.214844 35.285156 61.589844 C 35.285156 60.960938 34.777344 60.449219 34.15625 60.449219 L 30.703125 60.449219 C 30.082031 60.449219 29.574219 60.960938 29.574219 61.589844 C 29.574219 62.214844 30.082031 62.726562 30.703125 62.726562 Z M 30.703125 62.726562 " fill-opacity="1" fill-rule="nonzero"/><path fill="#000000" d="M 30.703125 58.171875 L 32.96875 58.171875 C 33.589844 58.171875 34.097656 57.65625 34.097656 57.03125 C 34.097656 56.40625 33.589844 55.890625 32.96875 55.890625 L 30.703125 55.890625 C 30.082031 55.890625 29.574219 56.40625 29.574219 57.03125 C 29.574219 57.65625 30.082031 58.171875 30.703125 58.171875 Z M 30.703125 58.171875 " fill-opacity="1" fill-rule="nonzero"/></svg>