<svg xmlns="http://www.w3.org/2000/svg" xmlns:xlink="http://www.w3.org/1999/xlink" width="100" zoomAndPan="magnify" viewBox="0 0 75 74.999997" height="100" preserveAspectRatio="xMidYMid meet" version="1.0"><defs><clipPath id="dbe0f89e5b"><path d="M 0.433594 5.203125 L 74.683594 5.203125 L 74.683594 69.703125 L 0.433594 69.703125 Z M 0.433594 5.203125 " clip-rule="nonzero"/></clipPath></defs><path fill="#000000" d="M 33.484375 36.859375 C 31.339844 37.796875 29.789062 39.71875 29.320312 41.992188 C 29.1875 42.636719 29.605469 43.265625 30.253906 43.402344 C 30.335938 43.417969 30.414062 43.425781 30.492188 43.425781 C 31.050781 43.425781 31.550781 43.035156 31.667969 42.46875 C 31.976562 40.953125 33.015625 39.671875 34.445312 39.050781 C 35.050781 38.78125 35.324219 38.078125 35.058594 37.472656 C 34.796875 36.871094 34.089844 36.597656 33.484375 36.859375 " fill-opacity="1" fill-rule="nonzero"/><path fill="#000000" d="M 14.804688 19.542969 C 13.484375 19.542969 12.410156 20.613281 12.410156 21.929688 C 12.410156 22.589844 12.945312 23.125 13.605469 23.125 C 14.265625 23.125 14.804688 22.589844 14.804688 21.929688 C 15.464844 21.929688 16 21.394531 16 20.738281 C 16 20.078125 15.464844 19.542969 14.804688 19.542969 " fill-opacity="1" fill-rule="nonzero"/><path fill="#000000" d="M 18.394531 58.949219 C 17.078125 58.949219 16 60.023438 16 61.339844 C 16 61.996094 16.539062 62.53125 17.199219 62.53125 C 17.859375 62.53125 18.394531 61.996094 18.394531 61.339844 C 19.054688 61.339844 19.59375 60.800781 19.59375 60.144531 C 19.59375 59.488281 19.054688 58.949219 18.394531 58.949219 " fill-opacity="1" fill-rule="nonzero"/><path fill="#000000" d="M 55.519531 60.144531 C 54.203125 60.144531 53.125 61.21875 53.125 62.53125 C 53.125 63.191406 53.664062 63.726562 54.324219 63.726562 C 54.984375 63.726562 55.519531 63.191406 55.519531 62.53125 C 56.179688 62.53125 56.71875 61.996094 56.71875 61.339844 C 56.71875 60.679688 56.179688 60.144531 55.519531 60.144531 " fill-opacity="1" fill-rule="nonzero"/><path fill="#000000" d="M 56.71875 23.125 C 57.378906 23.125 57.917969 22.589844 57.917969 21.929688 C 58.574219 21.929688 59.113281 21.394531 59.113281 20.738281 C 59.113281 20.078125 58.574219 19.542969 57.917969 19.542969 C 56.597656 19.542969 55.519531 20.613281 55.519531 21.929688 C 55.519531 22.589844 56.058594 23.125 56.71875 23.125 " fill-opacity="1" fill-rule="nonzero"/><g clip-path="url(#dbe0f89e5b)"><path fill="#000000" d="M 69.890625 50.589844 C 69.234375 50.589844 68.632812 50.324219 68.203125 49.890625 C 68.203125 49.890625 68.203125 49.890625 68.199219 49.890625 C 68.199219 49.886719 68.199219 49.886719 68.199219 49.886719 C 67.761719 49.457031 67.496094 48.859375 67.496094 48.203125 C 67.496094 46.886719 68.574219 45.8125 69.890625 45.8125 C 71.210938 45.8125 72.289062 46.886719 72.289062 48.203125 C 72.289062 49.519531 71.210938 50.589844 69.890625 50.589844 Z M 55.519531 67.308594 C 52.878906 67.308594 50.730469 65.167969 50.730469 62.53125 C 50.730469 59.898438 52.878906 57.753906 55.519531 57.753906 C 58.164062 57.753906 60.3125 59.898438 60.3125 62.53125 C 60.3125 65.167969 58.164062 67.308594 55.519531 67.308594 Z M 29.59375 50.179688 C 29.589844 50.179688 29.589844 50.179688 29.589844 50.175781 C 29.585938 50.175781 29.585938 50.175781 29.582031 50.171875 C 27.851562 48.445312 26.777344 46.058594 26.777344 43.425781 C 26.777344 40.792969 27.851562 38.40625 29.582031 36.679688 C 29.585938 36.675781 29.585938 36.675781 29.589844 36.675781 C 29.589844 36.671875 29.589844 36.671875 29.59375 36.671875 C 31.328125 34.941406 33.722656 33.871094 36.359375 33.871094 C 39 33.871094 41.394531 34.941406 43.125 36.671875 C 43.128906 36.671875 43.128906 36.671875 43.128906 36.675781 C 43.132812 36.675781 43.132812 36.675781 43.132812 36.679688 C 44.871094 38.40625 45.941406 40.792969 45.941406 43.425781 C 45.941406 46.058594 44.871094 48.445312 43.132812 50.171875 C 43.132812 50.175781 43.132812 50.175781 43.128906 50.175781 C 43.128906 50.179688 43.128906 50.179688 43.125 50.179688 C 41.394531 51.910156 39 52.980469 36.359375 52.980469 C 33.722656 52.980469 31.328125 51.910156 29.59375 50.179688 Z M 18.394531 66.113281 C 15.753906 66.113281 13.605469 63.972656 13.605469 61.339844 C 13.605469 58.703125 15.753906 56.5625 18.394531 56.5625 C 21.039062 56.5625 23.1875 58.703125 23.1875 61.339844 C 23.1875 63.972656 21.039062 66.113281 18.394531 66.113281 Z M 2.828125 48.203125 C 2.828125 46.886719 3.902344 45.8125 5.222656 45.8125 C 6.542969 45.8125 7.617188 46.886719 7.617188 48.203125 C 7.617188 48.859375 7.351562 49.457031 6.917969 49.886719 C 6.917969 49.886719 6.917969 49.886719 6.917969 49.890625 C 6.917969 49.890625 6.917969 49.890625 6.910156 49.890625 C 6.480469 50.324219 5.882812 50.589844 5.222656 50.589844 C 3.902344 50.589844 2.828125 49.519531 2.828125 48.203125 Z M 10.011719 21.929688 C 10.011719 19.296875 12.160156 17.152344 14.804688 17.152344 C 17.445312 17.152344 19.59375 19.296875 19.59375 21.929688 C 19.59375 24.566406 17.445312 26.707031 14.804688 26.707031 C 12.160156 26.707031 10.011719 24.566406 10.011719 21.929688 Z M 43.546875 9.988281 C 43.546875 8.671875 44.621094 7.601562 45.941406 7.601562 C 47.257812 7.601562 48.335938 8.671875 48.335938 9.988281 C 48.335938 10.648438 48.070312 11.242188 47.632812 11.671875 C 47.632812 11.675781 47.632812 11.675781 47.632812 11.675781 C 47.628906 11.675781 47.628906 11.675781 47.628906 11.675781 C 47.199219 12.113281 46.601562 12.378906 45.941406 12.378906 C 44.621094 12.378906 43.546875 11.304688 43.546875 9.988281 Z M 62.707031 21.929688 C 62.707031 24.566406 60.558594 26.707031 57.917969 26.707031 C 55.273438 26.707031 53.125 24.566406 53.125 21.929688 C 53.125 19.296875 55.273438 17.152344 57.917969 17.152344 C 60.558594 17.152344 62.707031 19.296875 62.707031 21.929688 Z M 69.890625 7.601562 C 71.210938 7.601562 72.289062 8.671875 72.289062 9.988281 C 72.289062 11.304688 71.210938 12.378906 69.890625 12.378906 C 69.234375 12.378906 68.632812 12.113281 68.203125 11.675781 C 68.203125 11.675781 68.203125 11.675781 68.199219 11.675781 C 68.199219 11.675781 68.199219 11.675781 68.199219 11.671875 C 67.761719 11.242188 67.496094 10.648438 67.496094 9.988281 C 67.496094 8.671875 68.574219 7.601562 69.890625 7.601562 Z M 69.890625 43.425781 C 67.25 43.425781 65.101562 45.566406 65.101562 48.203125 C 65.101562 49.085938 65.359375 49.902344 65.78125 50.613281 L 59.675781 56.695312 C 58.5 55.863281 57.070312 55.367188 55.519531 55.367188 C 53.972656 55.367188 52.542969 55.863281 51.367188 56.695312 L 45.628906 50.976562 C 47.320312 48.917969 48.335938 46.289062 48.335938 43.425781 C 48.335938 40.5625 47.320312 37.933594 45.628906 35.875 L 53.761719 27.765625 C 54.9375 28.601562 56.367188 29.097656 57.917969 29.097656 C 61.878906 29.097656 65.101562 25.882812 65.101562 21.929688 C 65.101562 20.386719 64.605469 18.960938 63.769531 17.785156 L 67.472656 14.089844 C 68.1875 14.507812 69.007812 14.765625 69.890625 14.765625 C 72.535156 14.765625 74.683594 12.625 74.683594 9.988281 C 74.683594 7.351562 72.535156 5.210938 69.890625 5.210938 C 67.25 5.210938 65.101562 7.351562 65.101562 9.988281 C 65.101562 10.871094 65.359375 11.691406 65.78125 12.402344 L 62.070312 16.09375 C 60.894531 15.261719 59.464844 14.765625 57.917969 14.765625 C 56.367188 14.765625 54.9375 15.261719 53.761719 16.09375 L 50.050781 12.402344 C 50.472656 11.691406 50.730469 10.871094 50.730469 9.988281 C 50.730469 7.351562 48.582031 5.210938 45.941406 5.210938 C 43.296875 5.210938 41.148438 7.351562 41.148438 9.988281 C 41.148438 12.625 43.296875 14.765625 45.941406 14.765625 C 46.824219 14.765625 47.644531 14.507812 48.359375 14.089844 L 52.0625 17.785156 C 51.226562 18.960938 50.730469 20.386719 50.730469 21.929688 C 50.730469 23.476562 51.226562 24.902344 52.0625 26.078125 L 43.933594 34.183594 C 41.867188 32.496094 39.230469 31.484375 36.359375 31.484375 C 33.488281 31.484375 30.855469 32.496094 28.785156 34.183594 L 20.65625 26.078125 C 21.492188 24.902344 21.988281 23.476562 21.988281 21.929688 C 21.988281 17.980469 18.765625 14.765625 14.804688 14.765625 C 10.839844 14.765625 7.617188 17.980469 7.617188 21.929688 C 7.617188 25.882812 10.839844 29.097656 14.804688 29.097656 C 16.351562 29.097656 17.785156 28.601562 18.960938 27.765625 L 27.09375 35.875 C 25.398438 37.933594 24.382812 40.5625 24.382812 43.425781 C 24.382812 46.289062 25.398438 48.917969 27.09375 50.976562 L 22.554688 55.503906 C 21.375 54.667969 19.945312 54.171875 18.394531 54.171875 C 16.847656 54.171875 15.417969 54.667969 14.238281 55.503906 L 9.335938 50.613281 C 9.753906 49.902344 10.011719 49.085938 10.011719 48.203125 C 10.011719 45.566406 7.867188 43.425781 5.222656 43.425781 C 2.578125 43.425781 0.433594 45.566406 0.433594 48.203125 C 0.433594 50.839844 2.578125 52.980469 5.222656 52.980469 C 6.105469 52.980469 6.929688 52.722656 7.640625 52.304688 L 12.542969 57.195312 C 11.710938 58.367188 11.210938 59.792969 11.210938 61.339844 C 11.210938 65.289062 14.433594 68.503906 18.394531 68.503906 C 22.359375 68.503906 25.582031 65.289062 25.582031 61.339844 C 25.582031 59.792969 25.085938 58.367188 24.25 57.195312 L 28.785156 52.667969 C 30.855469 54.355469 33.488281 55.367188 36.359375 55.367188 C 39.230469 55.367188 41.867188 54.355469 43.933594 52.667969 L 49.667969 58.390625 C 48.832031 59.5625 48.335938 60.988281 48.335938 62.53125 C 48.335938 66.484375 51.558594 69.699219 55.519531 69.699219 C 59.484375 69.699219 62.707031 66.484375 62.707031 62.53125 C 62.707031 60.988281 62.210938 59.5625 61.375 58.390625 L 67.472656 52.304688 C 68.1875 52.722656 69.007812 52.980469 69.890625 52.980469 C 72.535156 52.980469 74.683594 50.839844 74.683594 48.203125 C 74.683594 45.566406 72.535156 43.425781 69.890625 43.425781 " fill-opacity="1" fill-rule="nonzero"/></g></svg>