<svg xmlns="http://www.w3.org/2000/svg" xmlns:xlink="http://www.w3.org/1999/xlink" width="100" zoomAndPan="magnify" viewBox="0 0 75 74.999997" height="100" preserveAspectRatio="xMidYMid meet" version="1.0"><defs><clipPath id="a94ecbe288"><path d="M 1 4.695312 L 35 4.695312 L 35 36 L 1 36 Z M 1 4.695312 " clip-rule="nonzero"/></clipPath><clipPath id="5e0ac43bb6"><path d="M 37 4.695312 L 72 4.695312 L 72 36 L 37 36 Z M 37 4.695312 " clip-rule="nonzero"/></clipPath><clipPath id="54c80adcb7"><path d="M 21 37 L 52 37 L 52 69.945312 L 21 69.945312 Z M 21 37 " clip-rule="nonzero"/></clipPath></defs><g clip-path="url(#a94ecbe288)"><path fill="#1d1d1b" d="M 22.355469 34.863281 C 22.355469 34.867188 22.359375 34.867188 22.359375 34.867188 C 22.84375 35.210938 23.433594 35.390625 24.097656 35.390625 C 24.3125 35.390625 24.535156 35.371094 24.761719 35.335938 C 27.027344 34.96875 29.796875 32.863281 31.984375 29.835938 C 35.171875 25.429688 35.941406 20.730469 33.746094 19.132812 C 33.746094 19.132812 33.746094 19.128906 33.742188 19.128906 L 33.738281 19.125 L 16.65625 6.796875 C 14.542969 5.269531 11.972656 4.667969 9.425781 5.085938 C 6.863281 5.488281 4.613281 6.871094 3.089844 8.980469 C -0.046875 13.320312 0.933594 19.398438 5.273438 22.535156 Z M 6.007812 21.523438 C 2.226562 18.789062 1.371094 13.492188 4.105469 9.710938 C 5.433594 7.875 7.390625 6.667969 9.625 6.320312 C 10.085938 6.242188 10.546875 6.207031 11.003906 6.207031 C 12.757812 6.207031 14.464844 6.757812 15.921875 7.808594 L 31.03125 18.710938 C 30.417969 18.847656 29.761719 19.109375 29.078125 19.492188 C 27.34375 20.457031 25.578125 22.113281 24.105469 24.148438 C 21.953125 27.125 20.902344 30.234375 21.125 32.433594 Z M 25.121094 24.882812 C 26.488281 22.988281 28.109375 21.460938 29.6875 20.582031 C 31.097656 19.796875 32.304688 19.636719 33.003906 20.140625 C 34.386719 21.140625 33.890625 25.066406 30.96875 29.105469 C 29 31.832031 26.484375 33.792969 24.5625 34.101562 C 23.949219 34.199219 23.460938 34.117188 23.09375 33.855469 C 21.707031 32.851562 22.199219 28.921875 25.121094 24.882812 Z M 25.121094 24.882812 " fill-opacity="1" fill-rule="nonzero"/></g><g clip-path="url(#5e0ac43bb6)"><path fill="#1d1d1b" d="M 69.535156 8.980469 C 68.011719 6.871094 65.761719 5.488281 63.207031 5.085938 C 60.648438 4.664062 58.078125 5.273438 55.96875 6.796875 L 38.886719 19.125 L 38.882812 19.128906 C 38.878906 19.128906 38.878906 19.132812 38.878906 19.132812 C 36.683594 20.730469 37.453125 25.429688 40.640625 29.835938 C 42.828125 32.863281 45.597656 34.96875 47.863281 35.335938 C 48.089844 35.371094 48.3125 35.390625 48.527344 35.390625 C 49.191406 35.390625 49.785156 35.210938 50.265625 34.867188 C 50.265625 34.867188 50.269531 34.867188 50.269531 34.863281 L 67.351562 22.535156 C 71.691406 19.398438 72.671875 13.320312 69.535156 8.980469 Z M 49.53125 33.855469 C 49.164062 34.117188 48.675781 34.199219 48.0625 34.101562 C 46.140625 33.792969 43.625 31.832031 41.65625 29.105469 C 38.734375 25.066406 38.238281 21.140625 39.617188 20.140625 C 40.320312 19.636719 41.527344 19.796875 42.9375 20.582031 C 44.515625 21.460938 46.136719 22.988281 47.503906 24.882812 C 50.425781 28.921875 50.917969 32.851562 49.53125 33.855469 Z M 66.617188 21.523438 L 51.496094 32.433594 C 51.71875 30.234375 50.671875 27.125 48.519531 24.148438 C 47.046875 22.113281 45.28125 20.457031 43.546875 19.492188 C 42.863281 19.109375 42.207031 18.847656 41.59375 18.710938 L 56.703125 7.808594 C 58.539062 6.480469 60.773438 5.949219 63.007812 6.320312 C 65.234375 6.667969 67.191406 7.875 68.519531 9.710938 C 71.253906 13.492188 70.398438 18.789062 66.617188 21.523438 Z M 66.617188 21.523438 " fill-opacity="1" fill-rule="nonzero"/></g><g clip-path="url(#54c80adcb7)"><path fill="#1d1d1b" d="M 46.957031 45.019531 C 44.539062 45.019531 42.574219 46.984375 42.574219 49.398438 C 42.574219 50.3125 42.855469 51.160156 43.339844 51.863281 L 39.960938 53.644531 C 39.175781 52.472656 37.835938 51.699219 36.320312 51.699219 C 34.792969 51.699219 33.445312 52.488281 32.664062 53.679688 L 29.695312 52.464844 C 29.929688 51.929688 30.0625 51.34375 30.0625 50.726562 C 30.0625 49.742188 29.722656 48.84375 29.175781 48.113281 L 32.96875 44.078125 C 33.5625 44.535156 34.296875 44.816406 35.101562 44.816406 C 37.039062 44.816406 38.613281 43.246094 38.613281 41.3125 C 38.613281 39.378906 37.039062 37.808594 35.101562 37.808594 C 33.164062 37.808594 31.59375 39.378906 31.59375 41.3125 C 31.59375 41.988281 31.792969 42.613281 32.125 43.148438 L 28.289062 47.230469 C 27.558594 46.683594 26.660156 46.347656 25.679688 46.347656 C 23.261719 46.347656 21.296875 48.3125 21.296875 50.726562 C 21.296875 53.136719 23.261719 55.101562 25.679688 55.101562 C 27.019531 55.101562 28.203125 54.484375 29.007812 53.535156 L 32.144531 54.816406 C 32.023438 55.21875 31.9375 55.636719 31.9375 56.074219 C 31.9375 57.296875 32.445312 58.402344 33.257812 59.199219 L 29.742188 63.21875 C 29.3125 63.03125 28.84375 62.925781 28.34375 62.925781 C 26.410156 62.925781 24.835938 64.5 24.835938 66.433594 C 24.835938 68.367188 26.410156 69.9375 28.34375 69.9375 C 30.28125 69.9375 31.855469 68.367188 31.855469 66.433594 C 31.855469 65.449219 31.445312 64.5625 30.789062 63.925781 L 34.285156 59.925781 C 34.898438 60.25 35.582031 60.453125 36.320312 60.453125 C 37.429688 60.453125 38.429688 60.027344 39.199219 59.347656 L 42.433594 62.265625 C 42.273438 62.664062 42.179688 63.097656 42.179688 63.550781 C 42.179688 65.484375 43.757812 67.058594 45.691406 67.058594 C 47.628906 67.058594 49.203125 65.484375 49.203125 63.550781 C 49.203125 61.617188 47.628906 60.046875 45.691406 60.046875 C 44.667969 60.046875 43.753906 60.492188 43.113281 61.191406 L 40.019531 58.402344 C 40.449219 57.726562 40.703125 56.933594 40.703125 56.074219 C 40.703125 55.621094 40.617188 55.191406 40.488281 54.78125 L 44.238281 52.800781 C 44.988281 53.402344 45.925781 53.773438 46.957031 53.773438 C 49.371094 53.773438 51.339844 51.8125 51.339844 49.398438 C 51.339844 46.984375 49.371094 45.019531 46.957031 45.019531 Z M 35.101562 39.058594 C 36.347656 39.058594 37.359375 40.070312 37.359375 41.3125 C 37.359375 42.558594 36.347656 43.570312 35.101562 43.570312 C 33.855469 43.570312 32.84375 42.558594 32.84375 41.3125 C 32.84375 40.070312 33.855469 39.058594 35.101562 39.058594 Z M 25.679688 53.851562 C 23.953125 53.851562 22.546875 52.449219 22.546875 50.726562 C 22.546875 49 23.953125 47.597656 25.679688 47.597656 C 27.40625 47.597656 28.808594 49 28.808594 50.726562 C 28.808594 52.449219 27.40625 53.851562 25.679688 53.851562 Z M 28.34375 68.6875 C 27.101562 68.6875 26.089844 67.675781 26.089844 66.433594 C 26.089844 65.1875 27.101562 64.175781 28.34375 64.175781 C 29.589844 64.175781 30.601562 65.1875 30.601562 66.433594 C 30.601562 67.675781 29.589844 68.6875 28.34375 68.6875 Z M 45.691406 61.296875 C 46.9375 61.296875 47.949219 62.308594 47.949219 63.550781 C 47.949219 64.796875 46.9375 65.808594 45.691406 65.808594 C 44.445312 65.808594 43.433594 64.796875 43.433594 63.550781 C 43.433594 62.308594 44.445312 61.296875 45.691406 61.296875 Z M 36.320312 59.203125 C 34.59375 59.203125 33.191406 57.800781 33.191406 56.074219 C 33.191406 54.351562 34.59375 52.949219 36.320312 52.949219 C 38.050781 52.949219 39.453125 54.351562 39.453125 56.074219 C 39.453125 57.800781 38.050781 59.203125 36.320312 59.203125 Z M 46.957031 52.523438 C 45.230469 52.523438 43.824219 51.121094 43.824219 49.398438 C 43.824219 47.671875 45.230469 46.269531 46.957031 46.269531 C 48.683594 46.269531 50.085938 47.671875 50.085938 49.398438 C 50.085938 51.121094 48.683594 52.523438 46.957031 52.523438 Z M 46.957031 52.523438 " fill-opacity="1" fill-rule="nonzero"/></g></svg>