<svg xmlns="http://www.w3.org/2000/svg" xmlns:xlink="http://www.w3.org/1999/xlink" width="100" zoomAndPan="magnify" viewBox="0 0 75 74.999997" height="100" preserveAspectRatio="xMidYMid meet" version="1.0"><defs><clipPath id="04f5f2e090"><path d="M 0.964844 7 L 44 7 L 44 72.449219 L 0.964844 72.449219 Z M 0.964844 7 " clip-rule="nonzero"/></clipPath><clipPath id="983e565028"><path d="M 55 2.699219 L 69 2.699219 L 69 14 L 55 14 Z M 55 2.699219 " clip-rule="nonzero"/></clipPath><clipPath id="7dab9fea45"><path d="M 50 14 L 73.714844 14 L 73.714844 72.449219 L 50 72.449219 Z M 50 14 " clip-rule="nonzero"/></clipPath><clipPath id="cd8540a508"><path d="M 36 49 L 57 49 L 57 72.449219 L 36 72.449219 Z M 36 49 " clip-rule="nonzero"/></clipPath></defs><g clip-path="url(#04f5f2e090)"><path fill="#000000" d="M 5.605469 72.425781 L 31.035156 72.425781 C 31.582031 72.425781 32.039062 71.96875 32.039062 71.414062 C 32.039062 70.863281 31.582031 70.40625 31.035156 70.40625 L 5.605469 70.40625 C 4.164062 70.40625 2.992188 69.222656 2.992188 67.773438 L 2.992188 56.054688 L 33.210938 56.054688 C 33.761719 56.054688 34.214844 55.59375 34.214844 55.042969 C 34.214844 54.492188 33.761719 54.03125 33.210938 54.03125 L 2.992188 54.03125 L 2.992188 32.476562 L 41.089844 32.476562 L 41.089844 34.839844 C 41.089844 35.394531 41.542969 35.851562 42.09375 35.851562 C 42.640625 35.851562 43.097656 35.394531 43.097656 34.839844 L 43.097656 30.53125 C 43.097656 23.957031 38.304688 18.488281 32.039062 17.496094 L 32.039062 10.882812 C 32.039062 9.050781 30.5625 7.566406 28.742188 7.566406 L 15.316406 7.566406 C 13.5 7.566406 12.023438 9.050781 12.023438 10.882812 L 12.023438 17.496094 C 5.773438 18.507812 0.964844 23.957031 0.964844 30.53125 L 0.964844 67.753906 C 0.964844 70.328125 3.046875 72.425781 5.605469 72.425781 Z M 14.050781 10.863281 C 14.050781 10.15625 14.617188 9.566406 15.335938 9.566406 L 28.761719 9.566406 C 29.460938 9.566406 30.050781 10.140625 30.050781 10.863281 L 30.050781 17.304688 L 14.050781 17.304688 Z M 14.105469 19.34375 L 29.992188 19.34375 C 36.089844 19.34375 41.050781 24.320312 41.089844 30.4375 L 2.992188 30.4375 C 3.046875 24.320312 8.007812 19.34375 14.105469 19.34375 Z M 14.105469 19.34375 " fill-opacity="1" fill-rule="nonzero"/></g><g clip-path="url(#983e565028)"><path fill="#000000" d="M 56.957031 11.261719 L 58.074219 11.261719 L 58.074219 12.425781 C 58.074219 12.980469 58.527344 13.4375 59.078125 13.4375 C 59.625 13.4375 60.082031 12.980469 60.082031 12.425781 L 60.082031 11.261719 L 64.226562 11.261719 L 64.226562 12.425781 C 64.226562 12.980469 64.683594 13.4375 65.230469 13.4375 C 65.78125 13.4375 66.234375 12.980469 66.234375 12.425781 L 66.234375 11.261719 L 67.351562 11.261719 C 67.902344 11.261719 68.355469 10.804688 68.355469 10.253906 L 68.355469 5.601562 C 68.355469 4.019531 67.066406 2.726562 65.496094 2.726562 L 58.753906 2.726562 C 57.183594 2.726562 55.894531 4.019531 55.894531 5.601562 L 55.894531 10.273438 C 55.953125 10.824219 56.386719 11.261719 56.957031 11.261719 Z M 57.960938 5.601562 C 57.960938 5.125 58.339844 4.765625 58.792969 4.765625 L 65.535156 4.765625 C 66.007812 4.765625 66.367188 5.144531 66.367188 5.601562 L 66.367188 9.242188 L 57.960938 9.242188 Z M 57.960938 5.601562 " fill-opacity="1" fill-rule="nonzero"/></g><g clip-path="url(#7dab9fea45)"><path fill="#000000" d="M 51.65625 35.699219 C 52.203125 35.699219 52.660156 35.238281 52.660156 34.6875 L 52.660156 32.476562 L 71.6875 32.476562 L 71.6875 44.503906 L 61.898438 44.503906 C 61.351562 44.503906 60.894531 44.960938 60.894531 45.511719 C 60.894531 46.066406 61.351562 46.523438 61.898438 46.523438 L 71.6875 46.523438 L 71.6875 67.429688 C 71.6875 69.050781 70.382812 70.367188 68.773438 70.367188 L 61.898438 70.367188 C 61.351562 70.367188 60.894531 70.824219 60.894531 71.375 C 60.894531 71.929688 61.351562 72.386719 61.898438 72.386719 L 68.773438 72.386719 C 71.5 72.386719 73.714844 70.15625 73.714844 67.414062 L 73.714844 24.355469 C 73.714844 19.039062 69.417969 14.714844 64.132812 14.714844 L 60.234375 14.714844 C 54.949219 14.714844 50.652344 19.039062 50.652344 24.355469 L 50.652344 34.648438 C 50.632812 35.238281 51.085938 35.699219 51.65625 35.699219 Z M 52.660156 24.394531 C 52.660156 20.203125 56.046875 16.789062 60.214844 16.789062 L 64.113281 16.789062 C 68.28125 16.789062 71.667969 20.203125 71.667969 24.394531 L 71.667969 30.4375 L 52.660156 30.4375 Z M 52.660156 24.394531 " fill-opacity="1" fill-rule="nonzero"/></g><path fill="#000000" d="M 59.097656 42.007812 C 59.265625 42.367188 59.625 42.578125 60.003906 42.578125 C 60.15625 42.578125 60.308594 42.539062 60.460938 42.484375 L 63.242188 41.109375 C 63.714844 40.882812 63.925781 40.308594 63.734375 39.816406 L 62.863281 37.679688 L 64.796875 36.726562 C 65.289062 36.480469 65.496094 35.871094 65.25 35.375 C 65.003906 34.878906 64.398438 34.667969 63.90625 34.917969 L 61.121094 36.289062 C 60.648438 36.515625 60.441406 37.089844 60.628906 37.585938 L 61.5 39.71875 L 59.570312 40.671875 C 59.058594 40.902344 58.851562 41.511719 59.097656 42.007812 Z M 59.097656 42.007812 " fill-opacity="1" fill-rule="nonzero"/><path fill="#000000" d="M 26.566406 15.609375 C 27.113281 15.609375 27.570312 15.152344 27.570312 14.597656 L 27.570312 12.3125 C 27.570312 11.757812 27.113281 11.300781 26.566406 11.300781 C 26.015625 11.300781 25.5625 11.757812 25.5625 12.3125 L 25.5625 14.597656 C 25.5625 15.152344 26.015625 15.609375 26.566406 15.609375 Z M 26.566406 15.609375 " fill-opacity="1" fill-rule="nonzero"/><path fill="#000000" d="M 22.039062 15.609375 C 22.589844 15.609375 23.042969 15.152344 23.042969 14.597656 L 23.042969 12.3125 C 23.042969 11.757812 22.589844 11.300781 22.039062 11.300781 C 21.492188 11.300781 21.035156 11.757812 21.035156 12.3125 L 21.035156 14.597656 C 21.035156 15.152344 21.472656 15.609375 22.039062 15.609375 Z M 22.039062 15.609375 " fill-opacity="1" fill-rule="nonzero"/><path fill="#000000" d="M 17.496094 15.609375 C 18.042969 15.609375 18.5 15.152344 18.5 14.597656 L 18.5 12.3125 C 18.5 11.757812 18.042969 11.300781 17.496094 11.300781 C 16.945312 11.300781 16.492188 11.757812 16.492188 12.3125 L 16.492188 14.597656 C 16.492188 15.152344 16.945312 15.609375 17.496094 15.609375 Z M 17.496094 15.609375 " fill-opacity="1" fill-rule="nonzero"/><path fill="#000000" d="M 22.890625 43.339844 C 23.363281 43.644531 23.988281 43.511719 24.292969 43.035156 L 28.003906 37.203125 C 28.25 36.820312 28.210938 36.328125 27.929688 35.984375 C 27.644531 35.640625 27.152344 35.527344 26.753906 35.714844 L 16.585938 40.273438 C 16.285156 40.40625 16.074219 40.671875 16.019531 40.996094 C 15.941406 41.320312 16.039062 41.644531 16.265625 41.890625 L 18.402344 44.273438 L 14.558594 48.808594 C 14.257812 49.152344 14.238281 49.667969 14.503906 50.050781 C 14.691406 50.335938 15.015625 50.488281 15.335938 50.488281 C 15.449219 50.488281 15.5625 50.46875 15.660156 50.429688 L 26.867188 46.582031 C 27.191406 46.464844 27.4375 46.199219 27.53125 45.855469 C 27.605469 45.511719 27.511719 45.152344 27.265625 44.902344 L 26.660156 44.292969 C 26.261719 43.894531 25.636719 43.894531 25.238281 44.273438 C 25.011719 44.503906 24.917969 44.808594 24.9375 45.09375 L 18.480469 47.304688 L 20.507812 44.902344 C 20.828125 44.523438 20.828125 43.929688 20.488281 43.570312 L 18.6875 41.566406 L 24.480469 38.957031 L 22.589844 41.910156 C 22.285156 42.40625 22.4375 43.035156 22.890625 43.339844 Z M 22.890625 43.339844 " fill-opacity="1" fill-rule="nonzero"/><path fill="#000000" d="M 57.375 45.019531 L 57.375 41.703125 C 57.375 39.910156 55.933594 38.460938 54.152344 38.460938 L 39.023438 38.460938 C 37.246094 38.460938 35.804688 39.910156 35.804688 41.703125 L 35.804688 45.019531 C 35.804688 45.570312 36.261719 46.027344 36.808594 46.027344 L 39.421875 46.027344 L 39.421875 47.191406 C 39.421875 47.742188 39.875 48.199219 40.425781 48.199219 C 40.976562 48.199219 41.429688 47.742188 41.429688 47.191406 L 41.429688 46.027344 L 51.691406 46.027344 L 51.691406 47.191406 C 51.691406 47.742188 52.148438 48.199219 52.695312 48.199219 C 53.246094 48.199219 53.699219 47.742188 53.699219 47.191406 L 53.699219 46.027344 L 56.332031 46.027344 C 56.917969 46.027344 57.375 45.570312 57.375 45.019531 Z M 55.347656 43.988281 L 37.792969 43.988281 L 37.792969 41.703125 C 37.792969 41.035156 38.34375 40.480469 39.007812 40.480469 L 54.136719 40.480469 C 54.796875 40.480469 55.347656 41.035156 55.347656 41.703125 Z M 55.347656 43.988281 " fill-opacity="1" fill-rule="nonzero"/><g clip-path="url(#cd8540a508)"><path fill="#000000" d="M 40.425781 51.382812 L 45.632812 51.382812 C 46.183594 51.382812 46.636719 50.925781 46.636719 50.375 C 46.636719 49.820312 46.183594 49.363281 45.632812 49.363281 L 40.425781 49.363281 C 38.210938 49.363281 36.410156 51.175781 36.410156 53.402344 L 36.410156 71.414062 C 36.410156 71.96875 36.867188 72.425781 37.414062 72.425781 L 55.707031 72.425781 C 56.257812 72.425781 56.710938 71.96875 56.710938 71.414062 L 56.710938 53.386719 C 56.710938 51.15625 54.910156 49.34375 52.695312 49.34375 L 50.972656 49.34375 C 50.425781 49.34375 49.96875 49.800781 49.96875 50.355469 C 49.96875 50.90625 50.425781 51.363281 50.972656 51.363281 L 52.714844 51.363281 C 53.8125 51.363281 54.703125 52.261719 54.703125 53.367188 L 54.703125 53.976562 L 44.988281 53.976562 C 44.441406 53.976562 43.984375 54.433594 43.984375 54.984375 C 43.984375 55.539062 44.441406 55.996094 44.988281 55.996094 L 54.703125 55.996094 L 54.703125 65.714844 L 38.4375 65.714844 L 38.4375 55.996094 L 40.730469 55.996094 C 41.277344 55.996094 41.734375 55.539062 41.734375 54.984375 C 41.734375 54.433594 41.277344 53.976562 40.730469 53.976562 L 38.4375 53.976562 L 38.4375 53.386719 C 38.4375 52.296875 39.347656 51.382812 40.425781 51.382812 Z M 54.703125 67.773438 L 54.703125 70.386719 L 38.4375 70.386719 L 38.4375 67.773438 Z M 54.703125 67.773438 " fill-opacity="1" fill-rule="nonzero"/></g><path fill="#000000" d="M 44.496094 63.753906 C 44.6875 64.078125 45.027344 64.269531 45.367188 64.269531 C 45.539062 64.269531 45.710938 64.230469 45.878906 64.132812 L 47.8125 63.011719 C 48.226562 62.761719 48.417969 62.265625 48.265625 61.789062 L 47.695312 60.113281 L 48.910156 59.40625 C 49.382812 59.121094 49.554688 58.511719 49.269531 58.015625 C 48.984375 57.539062 48.378906 57.367188 47.886719 57.652344 L 45.957031 58.777344 C 45.539062 59.027344 45.347656 59.523438 45.5 60 L 46.070312 61.675781 L 44.855469 62.378906 C 44.382812 62.648438 44.214844 63.277344 44.496094 63.753906 Z M 44.496094 63.753906 " fill-opacity="1" fill-rule="nonzero"/></svg>