<svg xmlns="http://www.w3.org/2000/svg" xmlns:xlink="http://www.w3.org/1999/xlink" width="100" zoomAndPan="magnify" viewBox="0 0 75 74.999997" height="100" preserveAspectRatio="xMidYMid meet" version="1.0"><defs><clipPath id="6978596dc9"><path d="M 3 5 L 59 5 L 59 72.796875 L 3 72.796875 Z M 3 5 " clip-rule="nonzero"/></clipPath><clipPath id="d23b0bb064"><path d="M 21 2.296875 L 46 2.296875 L 46 12 L 21 12 Z M 21 2.296875 " clip-rule="nonzero"/></clipPath><clipPath id="b67e3fbba2"><path d="M 9 64 L 62 64 L 62 72.796875 L 9 72.796875 Z M 9 64 " clip-rule="nonzero"/></clipPath><clipPath id="5229a455d3"><path d="M 51 41 L 72.796875 41 L 72.796875 65 L 51 65 Z M 51 41 " clip-rule="nonzero"/></clipPath></defs><path fill="#000000" d="M 33.347656 19.226562 C 31.582031 18.742188 30.628906 17.695312 30.316406 17.300781 L 30.070312 17.441406 C 30.070312 17.441406 31.011719 18.917969 33.214844 19.527344 C 35.484375 20.152344 36.691406 19.882812 36.691406 19.882812 L 36.753906 19.589844 C 36.476562 19.640625 35.3125 19.769531 33.347656 19.226562 Z M 33.347656 19.226562 " fill-opacity="1" fill-rule="nonzero"/><path fill="#000000" d="M 44.988281 16.363281 C 44.988281 16.363281 44.902344 16.375 44.753906 16.394531 C 44.816406 16.6875 44.957031 17.492188 44.824219 18.183594 C 44.722656 18.722656 44.605469 19.613281 42.980469 20.40625 C 42.941406 20.425781 42.679688 20.523438 42.652344 20.601562 C 42.8125 20.535156 42.96875 20.464844 43.113281 20.394531 C 44.742188 19.601562 44.980469 18.8125 45.082031 18.269531 C 45.246094 17.402344 44.988281 16.363281 44.988281 16.363281 Z M 44.988281 16.363281 " fill-opacity="1" fill-rule="nonzero"/><path fill="#f7b208" d="M 33.894531 39.292969 C 30.828125 40.78125 28.558594 42.792969 27.351562 44.007812 C 27.082031 44.546875 26.886719 44.820312 26.886719 44.820312 C 26.886719 44.820312 29.507812 41.570312 33.894531 39.292969 Z M 33.894531 39.292969 " fill-opacity="1" fill-rule="nonzero"/><path fill="#f7b208" d="M 29.359375 17.6875 C 29.792969 17.648438 30.53125 17.601562 31.386719 17.097656 C 30.5 17.464844 29.8125 17.386719 29.5625 17.480469 C 29.507812 17.496094 29.4375 17.570312 29.359375 17.6875 Z M 29.359375 17.6875 " fill-opacity="1" fill-rule="nonzero"/><path fill="#f7b208" d="M 62.71875 64.464844 C 62.660156 64.492188 62.53125 64.566406 62.347656 64.675781 C 62.992188 64.480469 64.925781 64.101562 66.867188 63.074219 C 64.929688 63.992188 63.117188 64.296875 62.71875 64.464844 Z M 62.71875 64.464844 " fill-opacity="1" fill-rule="nonzero"/><g clip-path="url(#6978596dc9)"><path fill="#000000" d="M 41.152344 71.683594 C 30.695312 72.523438 23.527344 70.3125 19.832031 70.035156 C 14.746094 69.644531 10.207031 71.796875 6.957031 69.792969 C 2.8125 67.230469 4.949219 55.929688 4.949219 55.929688 C 4.949219 55.929688 4.082031 46.21875 6.992188 36.632812 C 9.433594 28.582031 15.238281 22.777344 18.433594 18.085938 C 21.265625 13.921875 24.191406 7.742188 24.984375 6.878906 C 25.273438 6.566406 25.710938 6.273438 26.269531 5.980469 C 25.460938 6.367188 24.839844 6.730469 24.464844 7.136719 C 23.671875 7.996094 20.746094 14.171875 17.914062 18.335938 C 14.722656 23.03125 8.917969 28.832031 6.472656 36.886719 C 3.558594 46.472656 4.429688 56.179688 4.429688 56.179688 C 4.429688 56.179688 2.296875 67.488281 6.441406 70.050781 C 9.6875 72.058594 14.230469 69.90625 19.316406 70.292969 C 23.007812 70.578125 30.179688 72.785156 40.632812 71.945312 C 48.398438 71.320312 54.746094 68.679688 58.507812 66.773438 C 54.691406 68.652344 48.566406 71.089844 41.152344 71.683594 Z M 41.152344 71.683594 " fill-opacity="1" fill-rule="nonzero"/></g><path fill="#000000" d="M 55.367188 40.636719 C 53.640625 40.722656 52.503906 40.9375 52.503906 40.9375 C 52.503906 40.9375 47.464844 36.972656 40.695312 37.433594 C 33.167969 37.941406 27.886719 43.367188 26.648438 44.757812 C 26.3125 45.488281 26.046875 45.855469 26.046875 45.855469 C 26.046875 45.855469 31.730469 38.792969 40.375 38.207031 C 47.144531 37.75 52.183594 41.710938 52.183594 41.710938 C 52.183594 41.710938 53.371094 41.488281 55.160156 41.40625 C 55.21875 41.144531 55.289062 40.890625 55.367188 40.636719 Z M 55.367188 40.636719 " fill-opacity="1" fill-rule="nonzero"/><g clip-path="url(#d23b0bb064)"><path fill="#000000" d="M 44.75 4.515625 C 43.902344 3.828125 42.234375 3.789062 40.070312 3.304688 C 37.824219 2.808594 35.851562 2.308594 34.351562 2.53125 C 32.851562 2.753906 31.429688 3.628906 29.589844 4.488281 C 27.148438 5.625 25.257812 6.277344 24.46875 7.140625 C 24.066406 7.578125 23.105469 9.398438 21.890625 11.625 C 21.949219 11.636719 22.011719 11.65625 22.074219 11.667969 C 23.21875 9.566406 24.117188 7.878906 24.503906 7.460938 C 25.292969 6.597656 27.179688 5.945312 29.625 4.808594 C 31.464844 3.953125 32.886719 3.074219 34.386719 2.851562 C 35.886719 2.628906 37.855469 3.132812 40.105469 3.628906 C 42.269531 4.109375 43.9375 4.148438 44.78125 4.839844 C 45.375 5.320312 45.832031 9.09375 45.957031 10.226562 L 45.960938 10.226562 C 45.957031 10.226562 45.453125 5.082031 44.75 4.515625 Z M 44.75 4.515625 " fill-opacity="1" fill-rule="nonzero"/></g><path fill="#000000" d="M 45.765625 8.550781 C 45.738281 8.558594 45.707031 8.5625 45.679688 8.566406 C 45.890625 10.203125 46.1875 12.625 46.355469 14.632812 C 46.4375 15.539062 46.210938 16.304688 45.511719 16.515625 C 45.515625 16.515625 45.527344 16.511719 45.535156 16.511719 C 46.367188 16.378906 46.632812 15.566406 46.550781 14.59375 C 46.378906 12.582031 46.027344 10.171875 45.765625 8.550781 Z M 45.765625 8.550781 " fill-opacity="1" fill-rule="nonzero"/><path fill="#000000" d="M 35.773438 7.570312 C 35.683594 7.578125 35.644531 8.066406 35.652344 8.375 C 35.65625 8.53125 35.867188 11.117188 35.882812 13.570312 C 35.890625 14.523438 35.867188 15.40625 35.800781 16.011719 C 35.703125 16.851562 35.34375 18.011719 33.65625 17.988281 C 32.417969 17.972656 31.703125 16.683594 31.53125 16.332031 L 31.375 16.929688 C 31.375 16.929688 32.132812 18.464844 33.542969 18.597656 C 34.734375 18.707031 36.5 17.96875 36.542969 16.097656 C 36.554688 15.488281 36.5625 14.929688 36.542969 14.125 C 36.53125 13.660156 36.402344 12.882812 36.402344 12.207031 C 36.402344 11.570312 36.410156 10.902344 36.234375 10.292969 C 35.78125 8.679688 35.863281 7.5625 35.773438 7.570312 Z M 35.773438 7.570312 " fill-opacity="1" fill-rule="nonzero"/><path fill="#000000" d="M 38.519531 21.546875 C 37.34375 21.515625 37.078125 20.953125 37.019531 20.742188 C 36.792969 19.898438 36.875 18.722656 36.949219 18.335938 C 36.949219 18.332031 36.953125 18.328125 36.953125 18.320312 C 36.859375 18.308594 36.773438 18.289062 36.691406 18.269531 C 36.675781 18.328125 36.65625 18.382812 36.648438 18.445312 C 36.574219 18.828125 36.492188 20.003906 36.71875 20.847656 C 36.777344 21.0625 37.039062 21.617188 38.21875 21.652344 C 39.140625 21.675781 40.695312 21.339844 42.050781 20.839844 C 40.769531 21.28125 39.375 21.570312 38.519531 21.546875 Z M 38.519531 21.546875 " fill-opacity="1" fill-rule="nonzero"/><path fill="#000000" d="M 38.632812 8.886719 C 38.613281 8.769531 38.628906 8.328125 38.535156 8.328125 C 38.433594 8.328125 38.421875 8.585938 38.429688 8.726562 C 38.4375 8.871094 38.660156 12.90625 38.644531 15.890625 C 38.636719 16.953125 38.265625 17.808594 37.351562 17.871094 C 36.542969 17.925781 36.03125 17.726562 35.730469 17.539062 C 35.71875 17.644531 35.710938 17.699219 35.710938 17.699219 C 35.710938 17.699219 36.199219 18.4375 37.675781 18.335938 C 38.589844 18.277344 39.269531 17.429688 39.273438 16.367188 C 39.277344 15.765625 39.273438 15.144531 39.261719 14.527344 C 39.25 14.003906 39.136719 13.359375 39.09375 12.757812 C 39 11.433594 38.835938 11.019531 38.78125 10.136719 C 38.726562 9.320312 38.644531 8.9375 38.632812 8.886719 Z M 38.632812 8.886719 " fill-opacity="1" fill-rule="nonzero"/><path fill="#000000" d="M 41.214844 9.015625 C 41.1875 8.894531 41.269531 8.359375 41.171875 8.363281 C 41.070312 8.367188 41.070312 8.621094 41.082031 8.765625 C 41.097656 8.910156 41.269531 12.789062 41.371094 15.773438 C 41.402344 16.835938 41.070312 17.703125 40.15625 17.796875 C 39.351562 17.882812 38.828125 17.707031 38.523438 17.527344 C 38.511719 17.632812 38.511719 17.691406 38.511719 17.691406 C 38.511719 17.691406 39.027344 18.414062 40.5 18.257812 C 41.410156 18.15625 41.96875 17.296875 41.933594 16.234375 C 41.886719 14.875 41.636719 14.324219 41.636719 12.59375 C 41.636719 11.449219 41.441406 10.726562 41.40625 10.09375 C 41.363281 9.347656 41.226562 9.0625 41.214844 9.015625 Z M 41.214844 9.015625 " fill-opacity="1" fill-rule="nonzero"/><path fill="#000000" d="M 46.550781 14.589844 C 46.535156 14.386719 46.515625 14.175781 46.492188 13.96875 C 46.492188 13.976562 46.488281 13.980469 46.488281 13.992188 C 46.496094 14.113281 46.511719 14.230469 46.519531 14.351562 C 46.605469 15.328125 46.335938 16.136719 45.503906 16.269531 C 45.191406 16.320312 44.925781 16.324219 44.699219 16.300781 C 44.679688 16.378906 44.65625 16.457031 44.628906 16.53125 C 44.875 16.566406 45.175781 16.570312 45.535156 16.511719 C 46.367188 16.378906 46.632812 15.566406 46.550781 14.589844 Z M 46.550781 14.589844 " fill-opacity="1" fill-rule="nonzero"/><path fill="#000000" d="M 43.777344 9.226562 C 43.75 9.105469 43.789062 8.8125 43.6875 8.816406 C 43.589844 8.824219 43.667969 9.089844 43.6875 9.234375 C 43.703125 9.375 44.011719 12.132812 44.167969 15.121094 C 44.226562 16.183594 43.90625 17.054688 42.996094 17.167969 C 42.1875 17.273438 41.667969 17.105469 41.359375 16.933594 C 41.351562 17.039062 41.347656 17.097656 41.347656 17.097656 C 41.347656 17.097656 41.878906 17.808594 43.347656 17.621094 C 44.257812 17.503906 44.824219 16.628906 44.769531 15.566406 C 44.738281 15.003906 44.546875 14.480469 44.511719 13.972656 C 44.484375 13.59375 44.539062 13.109375 44.511719 12.765625 C 44.476562 12.320312 44.316406 11.976562 44.285156 11.601562 C 44.230469 11 44.039062 10.566406 43.992188 10.164062 C 43.917969 9.546875 43.789062 9.277344 43.777344 9.226562 Z M 43.777344 9.226562 " fill-opacity="1" fill-rule="nonzero"/><path fill="#000000" d="M 28.964844 17.792969 C 28.996094 17.765625 29.023438 17.746094 29.046875 17.738281 C 29.261719 17.65625 29.8125 17.707031 30.527344 17.480469 C 30.9375 17.328125 31.296875 17.148438 31.609375 16.957031 C 31.808594 16.824219 32.007812 16.671875 32.214844 16.484375 C 34.15625 14.707031 33.574219 12.042969 33.363281 12.035156 C 33.15625 12.027344 33.015625 15.582031 30.089844 16.496094 C 26.804688 17.523438 25.8125 14.625 25.621094 14.679688 C 25.425781 14.734375 26.289062 17.800781 28.964844 17.792969 Z M 28.964844 17.792969 " fill-opacity="1" fill-rule="nonzero"/><path fill="#000000" d="M 27.828125 43.542969 C 26.878906 44.445312 26.371094 45.082031 26.371094 45.082031 C 26.371094 45.082031 28.941406 41.527344 28.1875 34.613281 C 27.804688 31.050781 26.742188 29.042969 27.226562 24.339844 C 27.628906 20.367188 28.683594 17.871094 29.046875 17.738281 C 29.050781 17.738281 29.050781 17.738281 29.054688 17.738281 L 28.964844 17.621094 C 28.964844 17.621094 27.050781 20.492188 26.523438 24.5625 C 25.855469 29.671875 27.09375 33.429688 26.769531 37.417969 C 26.105469 45.664062 21.691406 50.078125 19.332031 51.855469 C 17.996094 52.855469 16.464844 53.441406 16.609375 53.773438 C 16.800781 54.214844 18.550781 52.78125 21.605469 52.578125 C 24.519531 52.386719 25.296875 53.355469 25.660156 53.050781 C 26.023438 52.746094 24.691406 51.691406 25.910156 47.21875 C 26.332031 45.679688 27.4375 44.113281 27.828125 43.542969 Z M 27.828125 43.542969 " fill-opacity="1" fill-rule="nonzero"/><g clip-path="url(#b67e3fbba2)"><path fill="#000000" d="M 61.941406 64.867188 C 60.429688 65.664062 52.210938 69.613281 36.945312 69.820312 C 29.179688 69.925781 24.203125 67.445312 19.683594 67.921875 C 18.097656 68.089844 16.417969 68.726562 13.789062 69.839844 C 11.269531 70.90625 9.851562 70.914062 9.808594 70.914062 C 12.554688 70.96875 15.804688 70.023438 19.316406 70.292969 C 23.007812 70.578125 30.179688 72.785156 40.632812 71.945312 C 51.964844 71.035156 60.296875 65.824219 61.941406 64.867188 Z M 61.941406 64.867188 " fill-opacity="1" fill-rule="nonzero"/></g><path fill="#000000" d="M 22.957031 67.511719 C 23.140625 67.535156 23.304688 67.402344 23.328125 67.222656 C 23.347656 67.042969 23.21875 66.875 23.035156 66.851562 C 20.296875 66.519531 17.800781 67.617188 15.382812 68.675781 C 12.53125 69.925781 9.839844 71.105469 7.03125 69.824219 C 6.863281 69.746094 6.664062 69.820312 6.589844 69.988281 C 6.570312 70.03125 6.558594 70.074219 6.558594 70.121094 C 7.914062 70.90625 9.480469 71 11.214844 70.871094 C 12.722656 70.574219 14.203125 69.925781 15.65625 69.285156 C 17.984375 68.265625 20.394531 67.207031 22.957031 67.511719 Z M 22.957031 67.511719 " fill-opacity="1" fill-rule="nonzero"/><path fill="#000000" d="M 13.390625 64.792969 C 13.390625 64.792969 17.457031 63.917969 21.515625 64.09375 C 25.578125 64.265625 27.503906 65.203125 30.828125 65.738281 C 33.679688 66.199219 36.738281 66.199219 36.738281 66.199219 C 36.738281 66.199219 33.410156 65.738281 29.765625 64.988281 C 26.351562 64.289062 25.765625 63.15625 21.101562 63.070312 C 16.683594 62.996094 13.390625 64.792969 13.390625 64.792969 Z M 13.390625 64.792969 " fill-opacity="1" fill-rule="nonzero"/><path fill="#000000" d="M 37.183594 66.289062 C 35.707031 66.289062 31.308594 66.097656 25.523438 64.109375 C 19.765625 62.128906 13.394531 65.039062 13.335938 65.070312 C 13.167969 65.148438 12.96875 65.074219 12.894531 64.910156 C 12.816406 64.742188 12.886719 64.542969 13.054688 64.464844 C 13.121094 64.433594 14.738281 63.691406 17.113281 63.1875 C 19.3125 62.722656 22.597656 62.398438 25.742188 63.480469 C 32.625 65.847656 37.632812 65.617188 37.683594 65.617188 C 37.867188 65.605469 38.023438 65.746094 38.035156 65.929688 C 38.046875 66.117188 37.902344 66.273438 37.71875 66.28125 C 37.675781 66.28125 37.496094 66.289062 37.183594 66.289062 Z M 37.183594 66.289062 " fill-opacity="1" fill-rule="nonzero"/><path fill="#000000" d="M 52.503906 40.945312 C 52.503906 40.945312 53.265625 41.40625 53.65625 41.75 C 54.535156 42.527344 54.910156 43.058594 54.910156 43.058594 C 54.910156 43.058594 55.355469 41.984375 56.621094 41.378906 C 57.761719 40.828125 59.316406 40.796875 59.917969 40.808594 C 55.660156 40.167969 52.503906 40.945312 52.503906 40.945312 Z M 52.503906 40.945312 " fill-opacity="1" fill-rule="nonzero"/><path fill="#000000" d="M 10.054688 31.253906 C 13.519531 25.441406 18.59375 19.167969 20.722656 15.011719 C 22.390625 11.761719 23.773438 8.53125 24.480469 7.410156 C 25.054688 6.5 26.570312 5.839844 26.570312 5.839844 C 25.613281 6.285156 24.882812 6.679688 24.464844 7.140625 C 23.671875 8 20.746094 14.175781 17.914062 18.339844 C 14.722656 23.035156 8.917969 28.835938 6.472656 36.890625 C 3.558594 46.476562 4.429688 56.183594 4.429688 56.183594 C 4.429688 56.183594 4.367188 56.519531 4.285156 57.085938 C 4.527344 56.574219 6.4375 52.394531 7.210938 48.410156 C 8.5625 41.4375 5.417969 39.042969 10.054688 31.253906 Z M 10.054688 31.253906 " fill-opacity="1" fill-rule="nonzero"/><path fill="#000000" d="M 13.550781 69.457031 C 13.550781 69.457031 16.050781 68.640625 17.964844 67.976562 C 19.878906 67.316406 21.519531 66.804688 21.519531 66.804688 C 21.519531 66.804688 19.085938 67.144531 18.894531 65.605469 C 18.679688 63.878906 21.554688 64.097656 21.554688 64.097656 L 16.050781 63.445312 C 16.050781 63.445312 14.648438 63.8125 13.238281 64.367188 C 11.371094 65.105469 8.191406 65.824219 6.167969 62.589844 C 3.847656 58.882812 5.578125 54.539062 5.578125 54.539062 L 4.429688 56.167969 C 4.429688 56.179688 4.433594 56.191406 4.433594 56.191406 C 4.433594 56.191406 4 58.492188 3.902344 61.253906 L 3.960938 61.4375 C 3.960938 61.4375 4.515625 65 8.25 66.035156 C 9.75 66.449219 11.40625 66.605469 12.746094 66.882812 C 17.515625 67.863281 13.550781 69.457031 13.550781 69.457031 Z M 13.550781 69.457031 " fill-opacity="1" fill-rule="nonzero"/><path fill="#000000" d="M 26.078125 54.519531 C 26.078125 54.519531 31.425781 61.484375 39.949219 61.03125 C 49.125 60.546875 53.875 52.355469 53.875 52.355469 C 53.875 52.355469 44.90625 57.675781 39.90625 57.714844 C 32.878906 57.769531 26.078125 54.519531 26.078125 54.519531 Z M 26.078125 54.519531 " fill-opacity="1" fill-rule="nonzero"/><path fill="#000000" d="M 63.429688 64.347656 C 63.363281 64.175781 63.171875 64.085938 63 64.148438 C 62.988281 64.152344 61.59375 64.652344 59.449219 64.359375 C 57.464844 64.085938 54.414062 63.058594 51.140625 59.699219 C 51.011719 59.566406 50.800781 59.566406 50.667969 59.691406 C 50.535156 59.824219 50.535156 60.03125 50.660156 60.164062 C 54.085938 63.671875 57.304688 64.742188 59.402344 65.023438 C 59.90625 65.089844 60.375 65.113281 60.792969 65.113281 C 61.070312 65.113281 61.328125 65.105469 61.558594 65.082031 C 61.898438 64.886719 62.113281 64.757812 62.199219 64.71875 C 62.375 64.644531 62.824219 64.542969 63.433594 64.375 C 63.433594 64.375 63.433594 64.359375 63.429688 64.347656 Z M 63.429688 64.347656 " fill-opacity="1" fill-rule="nonzero"/><path fill="#000000" d="M 65.285156 56.132812 C 65.132812 56.132812 64.996094 56.027344 64.960938 55.875 C 63.476562 49.488281 60.609375 47.621094 58.710938 46.386719 C 58.078125 45.976562 57.53125 45.621094 57.171875 45.183594 C 57.054688 45.039062 57.070312 44.832031 57.214844 44.714844 C 57.359375 44.597656 57.566406 44.617188 57.683594 44.761719 C 57.980469 45.117188 58.488281 45.449219 59.074219 45.832031 C 61.0625 47.128906 64.0625 49.082031 65.609375 55.726562 C 65.648438 55.902344 65.535156 56.085938 65.359375 56.125 C 65.332031 56.128906 65.308594 56.132812 65.285156 56.132812 Z M 65.285156 56.132812 " fill-opacity="1" fill-rule="nonzero"/><g clip-path="url(#5229a455d3)"><path fill="#000000" d="M 71.953125 51.300781 C 70.84375 45.46875 67.101562 42.734375 63.191406 41.511719 L 62.226562 41.277344 C 62.226562 41.277344 69.011719 43.523438 70.636719 49.527344 C 72.25 55.46875 69.453125 59.464844 65.917969 60.714844 C 58.230469 63.433594 51.023438 59.628906 51.023438 59.628906 C 51.023438 59.628906 52.710938 62.292969 55.953125 63.628906 C 57.996094 64.472656 60.097656 64.8125 61.855469 64.921875 C 62.023438 64.820312 62.140625 64.753906 62.199219 64.730469 C 62.796875 64.480469 66.539062 63.921875 69.140625 61.488281 C 71.472656 59.300781 72.796875 55.738281 71.953125 51.300781 Z M 71.953125 51.300781 " fill-opacity="1" fill-rule="nonzero"/></g><path fill="#000000" d="M 57.46875 44.640625 C 57.46875 44.640625 62.101562 45.523438 63.867188 48.246094 C 65.613281 50.9375 65.613281 55.789062 65.613281 55.789062 C 65.613281 55.789062 63.71875 50.832031 62.503906 49.1875 C 61.46875 47.789062 59.296875 46.285156 58.164062 45.414062 C 57.660156 45.023438 57.46875 44.640625 57.46875 44.640625 Z M 57.46875 44.640625 " fill-opacity="1" fill-rule="nonzero"/><path fill="#000000" d="M 4.410156 55.898438 C 4.425781 56.085938 4.429688 56.1875 4.429688 56.1875 C 4.429688 56.1875 4.109375 57.890625 3.957031 60.125 C 4.3125 58.207031 4.875 56.566406 5.46875 54.84375 C 6.625 51.492188 7.820312 48.019531 7.5 42.171875 C 7.488281 41.984375 7.332031 41.847656 7.148438 41.855469 C 6.964844 41.867188 6.824219 42.023438 6.832031 42.207031 C 7.148438 47.925781 5.972656 51.335938 4.839844 54.628906 C 4.699219 55.046875 4.554688 55.46875 4.410156 55.898438 Z M 4.410156 55.898438 " fill-opacity="1" fill-rule="nonzero"/><path fill="#000000" d="M 38.589844 58.019531 C 37.339844 58.019531 36.078125 57.917969 34.8125 57.714844 C 29.648438 56.890625 26.246094 54.699219 26.105469 54.601562 C 25.953125 54.503906 25.90625 54.296875 26.007812 54.140625 C 26.109375 53.988281 26.316406 53.941406 26.46875 54.046875 C 26.503906 54.070312 29.914062 56.261719 34.945312 57.0625 C 39.574219 57.796875 46.570312 57.457031 53.605469 51.695312 C 53.746094 51.578125 53.957031 51.597656 54.074219 51.742188 C 54.191406 51.886719 54.171875 52.09375 54.03125 52.210938 C 50.835938 54.828125 47.382812 56.585938 43.761719 57.429688 C 42.066406 57.824219 40.335938 58.019531 38.589844 58.019531 Z M 38.589844 58.019531 " fill-opacity="1" fill-rule="nonzero"/><path fill="#000000" d="M 23.070312 67.507812 C 23.070312 67.507812 22.683594 67.554688 22.746094 67.757812 C 22.808594 67.964844 23.871094 68.132812 23.871094 68.132812 L 21.808594 68.242188 L 18.121094 68.179688 C 18.121094 68.179688 20.039062 67.367188 20.933594 67.261719 C 21.828125 67.152344 23.070312 67.507812 23.070312 67.507812 Z M 23.070312 67.507812 " fill-opacity="1" fill-rule="nonzero"/><path fill="#000000" d="M 22.84375 66.832031 C 22.84375 66.832031 24.378906 66.976562 25.722656 67.542969 C 26.675781 67.945312 27.007812 68.265625 27.976562 68.625 C 29.738281 69.277344 30.507812 69.347656 30.507812 69.347656 L 26.769531 69.175781 L 22.722656 68.503906 L 21.996094 67.742188 L 22.207031 67.324219 Z M 22.84375 66.832031 " fill-opacity="1" fill-rule="nonzero"/></svg>