<svg xmlns="http://www.w3.org/2000/svg" xmlns:xlink="http://www.w3.org/1999/xlink" width="100" zoomAndPan="magnify" viewBox="0 0 75 74.999997" height="100" preserveAspectRatio="xMidYMid meet" version="1.0"><defs><clipPath id="294c7cc269"><path d="M 5 5 L 71.25 5 L 71.25 71.25 L 5 71.25 Z M 5 5 " clip-rule="nonzero"/></clipPath></defs><g clip-path="url(#294c7cc269)"><path fill="#000000" d="M 33.394531 10.183594 C 26.992188 3.777344 16.570312 3.777344 10.164062 10.183594 C 3.757812 16.585938 3.757812 27.007812 10.164062 33.414062 L 43.199219 66.449219 C 46.402344 69.652344 50.609375 71.253906 54.816406 71.253906 C 59.023438 71.253906 63.230469 69.652344 66.429688 66.449219 C 69.535156 63.347656 71.242188 59.222656 71.242188 54.835938 C 71.242188 50.445312 69.535156 46.320312 66.429688 43.21875 Z M 11.222656 11.242188 C 17.042969 5.421875 26.515625 5.421875 32.335938 11.242188 L 48.324219 27.230469 L 27.210938 48.34375 L 11.222656 32.355469 C 5.402344 26.535156 5.402344 17.0625 11.222656 11.242188 Z M 65.371094 65.390625 C 59.550781 71.210938 50.078125 71.210938 44.257812 65.390625 L 28.269531 49.402344 L 49.382812 28.289062 L 65.371094 44.277344 C 71.195312 50.097656 71.195312 59.570312 65.371094 65.390625 Z M 65.371094 65.390625 " fill-opacity="1" fill-rule="nonzero"/></g><path fill="#000000" d="M 29.285156 33.644531 C 30.359375 32.902344 31.277344 31.980469 32.050781 30.941406 C 33.363281 30.664062 34.699219 30.449219 36.023438 30.296875 C 37.457031 31.050781 39.054688 31.476562 40.71875 31.476562 C 41.402344 31.476562 42.09375 31.40625 42.785156 31.265625 C 43.1875 31.183594 43.449219 30.789062 43.371094 30.382812 C 43.285156 29.976562 42.882812 29.722656 42.484375 29.796875 C 38.792969 30.550781 35.125 28.871094 33.25 25.621094 C 34.144531 22.710938 33.914062 19.617188 32.5625 16.867188 C 31.15625 14.007812 28.722656 11.867188 25.707031 10.839844 C 24.367188 10.382812 22.957031 10.171875 21.554688 10.207031 C 21.238281 10.214844 20.964844 10.414062 20.863281 10.710938 C 18.742188 16.9375 22.078125 23.730469 28.304688 25.851562 C 29.507812 26.261719 30.757812 26.464844 32.023438 26.480469 C 32.605469 27.464844 33.328125 28.324219 34.164062 29.039062 C 33.429688 29.152344 32.695312 29.285156 31.964844 29.433594 C 28.144531 24.359375 20.949219 23.152344 15.675781 26.792969 C 14.511719 27.597656 13.507812 28.59375 12.691406 29.753906 C 12.511719 30.011719 12.511719 30.351562 12.6875 30.609375 C 15 33.957031 18.730469 35.753906 22.519531 35.753906 C 24.859375 35.753906 27.21875 35.070312 29.285156 33.644531 Z M 22.121094 11.703125 C 23.179688 11.730469 24.21875 11.914062 25.226562 12.257812 C 27.863281 13.15625 29.992188 15.027344 31.21875 17.53125 C 32.371094 19.871094 32.601562 22.5 31.890625 24.988281 C 30.832031 24.964844 29.792969 24.777344 28.789062 24.433594 C 23.511719 22.636719 20.609375 17.003906 22.121094 11.703125 Z M 14.234375 30.1875 C 14.882812 29.355469 15.652344 28.628906 16.527344 28.027344 C 21.113281 24.859375 27.367188 25.878906 30.726562 30.25 C 30.078125 31.082031 29.308594 31.808594 28.433594 32.410156 C 23.847656 35.582031 17.59375 34.5625 14.234375 30.1875 Z M 14.234375 30.1875 " fill-opacity="1" fill-rule="nonzero"/><path fill="#000000" d="M 60.902344 47.691406 C 60.609375 47.984375 60.609375 48.457031 60.902344 48.75 C 62.523438 50.375 63.421875 52.535156 63.421875 54.835938 C 63.421875 57.132812 62.523438 59.292969 60.902344 60.917969 C 60.609375 61.210938 60.609375 61.6875 60.902344 61.976562 C 61.046875 62.125 61.238281 62.199219 61.429688 62.199219 C 61.621094 62.199219 61.8125 62.125 61.960938 61.976562 C 63.867188 60.070312 64.917969 57.53125 64.917969 54.835938 C 64.917969 52.136719 63.867188 49.597656 61.960938 47.691406 C 61.667969 47.398438 61.191406 47.398438 60.902344 47.691406 Z M 60.902344 47.691406 " fill-opacity="1" fill-rule="nonzero"/></svg>