<svg xmlns="http://www.w3.org/2000/svg" xmlns:xlink="http://www.w3.org/1999/xlink" width="60" zoomAndPan="magnify" viewBox="0 0 45 44.999999" height="60" preserveAspectRatio="xMidYMid meet" version="1.0"><defs><clipPath id="094d12f488"><path d="M 1.144531 0.738281 L 43.894531 0.738281 L 43.894531 43.960938 L 1.144531 43.960938 Z M 1.144531 0.738281 " clip-rule="nonzero"/></clipPath></defs><g clip-path="url(#094d12f488)"><path fill="#000000" d="M 43.832031 9.085938 L 43.859375 9.007812 L 22.523438 0.738281 L 1.21875 9.09375 L 1.144531 9.066406 L 1.144531 35.65625 L 22.511719 43.960938 L 43.878906 35.652344 L 43.878906 9.066406 Z M 22.5 2.363281 L 29.738281 4.9375 L 10.007812 12.53125 L 3.324219 9.917969 Z M 21.75 42.085938 L 13.75 38.882812 L 9.734375 37.386719 L 2.671875 34.625 L 2.671875 11.292969 L 9.660156 14.027344 L 9.660156 19.859375 L 10.285156 19.6875 L 10.707031 20.261719 L 11.289062 20.125 L 11.859375 20.71875 L 12.355469 20.550781 L 13.152344 21.335938 L 13.152344 15.390625 L 13.773438 15.636719 L 21.75 18.753906 Z M 22.511719 17.425781 L 14.710938 14.375 L 33.953125 6.636719 L 41.890625 9.84375 Z M 42.355469 34.625 L 23.277344 42.085938 L 23.277344 18.753906 L 42.351562 11.289062 L 42.351562 34.625 Z M 42.355469 34.625 " fill-opacity="1" fill-rule="nonzero"/></g></svg>