<svg xmlns="http://www.w3.org/2000/svg" xmlns:xlink="http://www.w3.org/1999/xlink" width="100" zoomAndPan="magnify" viewBox="0 0 75 74.999997" height="100" preserveAspectRatio="xMidYMid meet" version="1.0"><defs><clipPath id="261e91e01a"><path d="M 13.890625 8 L 61.140625 8 L 61.140625 74.421875 L 13.890625 74.421875 Z M 13.890625 8 " clip-rule="nonzero"/></clipPath><clipPath id="27520366e7"><path d="M 19 0.921875 L 56 0.921875 L 56 12 L 19 12 Z M 19 0.921875 " clip-rule="nonzero"/></clipPath></defs><g clip-path="url(#261e91e01a)"><path fill="#000000" d="M 50.859375 74.0625 L 24.167969 74.0625 C 18.507812 74.0625 13.902344 69.457031 13.902344 63.796875 L 13.902344 25.960938 C 13.902344 18.957031 18.425781 16.390625 21.960938 15.824219 L 21.960938 9.734375 C 21.960938 8.84375 22.683594 8.125 23.570312 8.125 L 51.457031 8.125 C 52.34375 8.125 53.066406 8.84375 53.066406 9.734375 L 53.066406 15.824219 C 56.601562 16.390625 61.125 18.957031 61.125 25.960938 L 61.125 63.796875 C 61.125 69.457031 56.519531 74.0625 50.859375 74.0625 Z M 23.535156 18.910156 C 22.464844 18.910156 17.117188 19.25 17.117188 25.960938 L 17.117188 63.796875 C 17.117188 67.6875 20.277344 70.851562 24.167969 70.851562 L 50.859375 70.851562 C 54.75 70.851562 57.914062 67.6875 57.914062 63.796875 L 57.914062 25.960938 C 57.914062 19.25 52.566406 18.910156 51.492188 18.910156 C 51.054688 18.929688 50.644531 18.761719 50.332031 18.457031 C 50.019531 18.15625 49.851562 17.738281 49.851562 17.300781 L 49.851562 11.339844 L 25.175781 11.339844 L 25.175781 17.300781 C 25.175781 17.734375 25.003906 18.148438 24.695312 18.449219 C 24.382812 18.753906 23.972656 18.925781 23.535156 18.910156 Z M 23.535156 18.910156 " fill-opacity="1" fill-rule="nonzero"/></g><g clip-path="url(#27520366e7)"><path fill="#000000" d="M 19.355469 0.925781 L 55.671875 0.925781 L 55.671875 11.242188 L 19.355469 11.242188 Z M 19.355469 0.925781 " fill-opacity="1" fill-rule="nonzero"/></g><path fill="#000000" d="M 51.457031 18.957031 L 41.382812 18.957031 C 40.496094 18.957031 39.777344 18.238281 39.777344 17.351562 C 39.777344 16.460938 40.496094 15.742188 41.382812 15.742188 L 51.457031 15.742188 C 52.34375 15.742188 53.066406 16.460938 53.066406 17.351562 C 53.066406 18.238281 52.34375 18.957031 51.457031 18.957031 Z M 51.457031 18.957031 " fill-opacity="1" fill-rule="nonzero"/><path fill="#000000" d="M 46.886719 45.519531 L 40.230469 45.519531 L 44.105469 27.121094 L 28.140625 45.519531 L 34.796875 45.519531 L 30.921875 63.921875 Z M 46.886719 45.519531 " fill-opacity="1" fill-rule="nonzero"/></svg>