<svg xmlns="http://www.w3.org/2000/svg" xmlns:xlink="http://www.w3.org/1999/xlink" width="100" zoomAndPan="magnify" viewBox="0 0 75 74.999997" height="100" preserveAspectRatio="xMidYMid meet" version="1.0"><defs><clipPath id="9e6886fb90"><path d="M 19 0.449219 L 56 0.449219 L 56 74.699219 L 19 74.699219 Z M 19 0.449219 " clip-rule="nonzero"/></clipPath></defs><path fill="#100f0d" d="M 74.261719 20.109375 C 73.59375 19.390625 72.472656 19.351562 71.753906 20.015625 C 70.25 21.414062 68.492188 22.355469 66.644531 22.972656 L 57.148438 13.484375 C 56.457031 12.792969 55.332031 12.792969 54.640625 13.484375 C 53.945312 14.175781 53.945312 15.296875 54.640625 15.992188 L 62.507812 23.851562 C 60.375 24.082031 58.28125 24.019531 56.464844 23.839844 C 55.488281 23.742188 54.621094 24.453125 54.523438 25.425781 C 54.425781 26.398438 55.136719 27.265625 56.113281 27.363281 C 57.210938 27.472656 58.398438 27.542969 59.640625 27.542969 C 64.421875 27.542969 69.988281 26.496094 74.167969 22.609375 C 74.886719 21.945312 74.925781 20.824219 74.261719 20.109375 " fill-opacity="1" fill-rule="nonzero"/><g clip-path="url(#9e6886fb90)"><path fill="#100f0d" d="M 52.96875 26.085938 C 52.917969 25.9375 48.027344 11.367188 55.328125 3.625 C 56 2.914062 55.964844 1.792969 55.253906 1.121094 C 54.539062 0.449219 53.417969 0.484375 52.746094 1.195312 C 44.0625 10.402344 49.269531 26.21875 49.605469 27.210938 C 49.777344 27.761719 52.71875 37.554688 46.929688 44.6875 L 30.492188 28.265625 C 31.984375 27.09375 33.585938 26.285156 35.207031 25.742188 L 44.546875 35.078125 C 44.894531 35.425781 45.347656 35.597656 45.800781 35.597656 C 46.253906 35.597656 46.710938 35.425781 47.054688 35.078125 C 47.75 34.386719 47.75 33.265625 47.054688 32.574219 L 39.367188 24.890625 C 41.285156 24.71875 43.125 24.820312 44.722656 25.035156 C 45.691406 25.164062 46.585938 24.484375 46.714844 23.515625 C 46.847656 22.546875 46.167969 21.65625 45.195312 21.523438 C 42.820312 21.203125 39.273438 21.039062 35.546875 21.980469 C 35.351562 21.996094 35.164062 22.046875 34.984375 22.128906 C 32.140625 22.929688 29.222656 24.390625 26.660156 26.933594 C 26.660156 26.933594 26.65625 26.9375 26.65625 26.9375 C 26.65625 26.9375 26.65625 26.941406 26.652344 26.941406 C 22.984375 30.585938 21.007812 35.554688 20.941406 41.308594 C 20.890625 45.453125 21.824219 48.613281 22.011719 49.207031 C 22.019531 49.222656 22.023438 49.238281 22.027344 49.253906 C 22.078125 49.402344 26.96875 63.972656 19.671875 71.714844 C 19 72.425781 19.035156 73.546875 19.746094 74.21875 C 20.089844 74.539062 20.527344 74.699219 20.960938 74.699219 C 21.433594 74.699219 21.90625 74.511719 22.253906 74.144531 C 30.9375 64.929688 25.722656 49.101562 25.390625 48.125 C 25.214844 47.566406 22.296875 37.894531 27.980469 30.765625 L 44.390625 47.160156 C 42.914062 48.304688 41.332031 49.089844 39.734375 49.617188 L 30.351562 40.246094 C 29.660156 39.554688 28.535156 39.554688 27.84375 40.246094 C 27.152344 40.9375 27.152344 42.0625 27.84375 42.753906 L 35.558594 50.457031 C 33.664062 50.621094 31.855469 50.519531 30.277344 50.304688 C 29.308594 50.175781 28.414062 50.855469 28.285156 51.824219 C 28.152344 52.792969 28.832031 53.683594 29.804688 53.816406 C 30.847656 53.957031 32.121094 54.066406 33.535156 54.066406 C 37.886719 54.066406 43.585938 53.015625 48.179688 48.558594 C 48.199219 48.539062 48.222656 48.523438 48.242188 48.503906 C 48.25 48.496094 48.257812 48.484375 48.269531 48.476562 C 48.292969 48.453125 48.316406 48.429688 48.339844 48.40625 C 52.007812 44.765625 53.984375 39.804688 54.058594 34.058594 C 54.109375 29.921875 53.175781 26.738281 52.984375 26.136719 C 52.980469 26.121094 52.972656 26.101562 52.96875 26.085938 " fill-opacity="1" fill-rule="nonzero"/></g><path fill="#100f0d" d="M 18.933594 59.597656 L 11.023438 51.699219 C 13.652344 51.234375 16.300781 51.28125 18.535156 51.5 C 19.507812 51.601562 20.375 50.886719 20.472656 49.914062 C 20.570312 48.941406 19.859375 48.074219 18.886719 47.976562 C 11.238281 47.214844 4.996094 48.859375 0.832031 52.730469 C 0.113281 53.394531 0.0703125 54.515625 0.738281 55.230469 C 1.089844 55.605469 1.5625 55.796875 2.039062 55.796875 C 2.46875 55.796875 2.902344 55.640625 3.246094 55.320312 C 4.414062 54.238281 5.738281 53.425781 7.140625 52.828125 L 16.425781 62.101562 C 16.773438 62.449219 17.226562 62.621094 17.679688 62.621094 C 18.132812 62.621094 18.585938 62.449219 18.933594 62.101562 C 19.625 61.410156 19.625 60.289062 18.933594 59.597656 " fill-opacity="1" fill-rule="nonzero"/></svg>