<svg xmlns="http://www.w3.org/2000/svg" xmlns:xlink="http://www.w3.org/1999/xlink" width="100" zoomAndPan="magnify" viewBox="0 0 75 74.999997" height="100" preserveAspectRatio="xMidYMid meet" version="1.0"><defs><clipPath id="40b8e4212c"><path d="M 10.089844 0 L 64.839844 0 L 64.839844 75 L 10.089844 75 Z M 10.089844 0 " clip-rule="nonzero"/></clipPath></defs><g clip-path="url(#40b8e4212c)"><path fill="#222222" d="M 62.59375 55.789062 C 61.023438 53.824219 59.503906 51.8125 58.058594 49.765625 C 54.96875 45.109375 53.011719 39.613281 48.824219 35.753906 C 49.355469 33.578125 49.882812 31.398438 50.386719 29.214844 C 51.003906 29.265625 51.988281 29.695312 52.3125 29.390625 C 52.410156 29.289062 53.277344 25.597656 53.671875 23.71875 C 53.714844 23.089844 54.167969 22.042969 53.375 21.746094 C 51.304688 21.355469 52.328125 21.3125 51.773438 19.3125 C 52.3125 17.15625 53.53125 11.710938 53.648438 11.15625 C 54.285156 11.195312 55.324219 11.800781 55.640625 10.945312 C 55.84375 9.4375 56.375 7.925781 56.390625 6.40625 C 56.226562 5.542969 53.144531 4.980469 52.3125 4.640625 C 48.222656 3.460938 44 3.253906 39.796875 2.921875 C 38.394531 2.898438 36.988281 3.011719 35.609375 3.277344 C 35.023438 3.386719 34.4375 3.527344 33.867188 3.683594 C 33.824219 3.570312 33.777344 3.460938 33.71875 3.351562 C 33.273438 2.566406 32.40625 2.089844 31.546875 1.917969 C 30.078125 1.578125 28.417969 2.101562 27.632812 3.371094 C 26.679688 2.640625 25.714844 1.851562 24.714844 1.136719 C 24.023438 0.640625 23.269531 0.132812 22.410156 0.0234375 C 20.882812 0 20.074219 1.585938 21.082031 2.796875 C 22.429688 4.53125 24.378906 5.695312 26.09375 7.011719 C 26.699219 6.980469 25.097656 11.164062 24.789062 11.453125 C 23.921875 12.257812 23.195312 13.222656 22.742188 14.324219 C 22.222656 14.765625 20.734375 13.453125 20.347656 14.558594 C 19.777344 16.324219 19.289062 18.125 18.875 19.945312 C 18.800781 20.558594 18.242188 21.671875 19.066406 21.960938 C 19.613281 22.085938 20.15625 22.203125 20.695312 22.324219 C 20.488281 23.347656 20.273438 24.367188 20.066406 25.386719 C 19.667969 27.320312 19.265625 29.265625 18.859375 31.199219 C 17.191406 31.023438 15.382812 31.265625 14.0625 32.359375 C 11.953125 34.035156 12.03125 37.414062 14.546875 38.660156 C 12.0625 39.125 10.097656 42.046875 11.402344 44.4375 C 11.996094 45.507812 13.128906 46.136719 14.25 46.503906 C 13.425781 46.808594 12.699219 47.339844 12.167969 48.046875 C 10.507812 50.210938 11.515625 53.066406 14.0625 53.9375 C 13.539062 56.355469 13.019531 58.761719 12.492188 61.175781 C 12.457031 61.957031 11.492188 63.78125 12.457031 64.0625 C 15.753906 65.019531 33.421875 69.160156 38.972656 70.199219 C 39.402344 70.304688 40.011719 70.398438 40.160156 69.839844 C 40.605469 67.839844 40.382812 68.785156 42.53125 69.667969 C 43.449219 70.113281 47.117188 72.230469 47.84375 73.078125 C 48.429688 73.542969 49.734375 75.75 50.277344 75.683594 C 50.816406 75.675781 51.097656 75.019531 50.714844 74.621094 C 50.113281 73.859375 49.511719 73.09375 48.867188 72.363281 C 47.394531 70.730469 45.355469 69.773438 43.457031 68.746094 C 40.375 66.976562 40.597656 68.253906 41.464844 64.835938 C 43.027344 58.835938 44.570312 52.816406 46.082031 46.808594 C 46.3125 47.457031 47.28125 47.289062 47.296875 46.601562 C 47.453125 43.015625 43.28125 40.757812 41.746094 38.394531 C 40.234375 36.433594 40.589844 34.792969 42.183594 33.9375 C 43.589844 33.3125 45.652344 34.734375 46.546875 35.429688 C 52.375 39.878906 54.269531 47.449219 59.035156 53.214844 C 60.429688 55.074219 61.832031 56.925781 63.378906 58.652344 C 63.921875 59.21875 64.832031 58.355469 64.253906 57.773438 C 63.683594 57.125 63.128906 56.460938 62.59375 55.789062 Z M 51.75 14.101562 C 50.476562 19.726562 51.929688 15.347656 47.296875 12.351562 C 44.984375 10.632812 44.578125 11.992188 45.414062 9.289062 C 47.75 9.835938 50.097656 10.382812 52.441406 10.90625 C 52.21875 11.976562 51.988281 13.039062 51.75 14.101562 Z M 44.011719 7.542969 C 44.148438 6.539062 44.429688 5.5625 44.792969 4.613281 C 44.878906 4.515625 45.082031 4.621094 45.207031 4.605469 C 48.601562 4.90625 51.964844 5.675781 55.152344 6.878906 C 54.953125 7.949219 54.738281 9.011719 54.539062 10.074219 C 54.136719 9.992188 53.730469 9.902344 53.328125 9.828125 C 50.824219 9.277344 48.335938 8.691406 45.84375 8.109375 C 45.445312 7.925781 44.066406 7.894531 44.011719 7.542969 Z M 34.007812 5.527344 C 34.023438 5.328125 34.03125 5.128906 34.039062 4.929688 C 36.386719 4.25 38.855469 4.035156 41.285156 4.25 C 42.027344 4.316406 42.769531 4.40625 43.507812 4.53125 C 43.382812 4.878906 43.265625 5.230469 43.167969 5.585938 C 41.910156 5.394531 40.632812 5.328125 39.359375 5.371094 C 37.898438 5.417969 36.445312 5.601562 35.007812 5.867188 C 34.429688 5.875 33.800781 6.457031 34.007812 5.527344 Z M 33.882812 7.4375 C 36.3125 6.714844 38.914062 6.53125 41.441406 6.640625 C 43.117188 6.789062 42.902344 6.480469 42.703125 8.160156 C 42.722656 8.90625 43.679688 8.824219 44.199219 8.996094 C 44.058594 9.503906 43.925781 10 43.796875 10.507812 C 41.398438 9.703125 38.730469 8.796875 36.113281 8.5 C 35.355469 8.40625 34.585938 8.359375 33.824219 8.347656 C 33.851562 8.050781 33.867188 7.742188 33.882812 7.4375 Z M 28.019531 5.84375 C 28.351562 4.699219 28.761719 3.203125 30.167969 3.097656 C 32.957031 2.953125 32.941406 4.265625 32.695312 6.582031 C 32.652344 7.1875 32.621094 7.792969 32.578125 8.398438 C 30.984375 8.507812 29.390625 8.789062 27.914062 9.421875 C 27.574219 9.5625 27.242188 9.726562 26.929688 9.902344 C 27.285156 8.539062 27.625 7.1875 28.019531 5.84375 Z M 25.269531 4.878906 C 24.179688 3.910156 21.5625 2.125 21.859375 1.527344 C 22.355469 0.53125 24.203125 2.433594 24.988281 2.878906 C 25.535156 3.285156 26.375 3.992188 27.136719 4.546875 C 26.550781 6.589844 26.804688 5.851562 25.269531 4.878906 Z M 23.929688 14.664062 C 27.746094 7.378906 37.988281 9.394531 43.992188 11.984375 C 48.03125 13.578125 50.351562 16.582031 50.773438 20.949219 C 50.78125 21.007812 50.78125 21.0625 50.789062 21.121094 C 49.355469 20.765625 47.910156 20.417969 46.472656 20.058594 C 44.375 19.546875 42.273438 19.03125 40.175781 18.523438 C 34.84375 17.148438 29.09375 16.035156 23.929688 14.664062 Z M 19.933594 20.875 C 20.058594 20.25 20.214844 19.636719 20.371094 19.03125 C 20.675781 17.828125 21.007812 16.632812 21.371094 15.445312 C 27.300781 16.738281 47.792969 21.660156 52.136719 22.722656 C 52.523438 22.78125 52.632812 22.839844 52.507812 23.273438 C 52.433594 23.738281 51.5 27.96875 51.453125 28.175781 C 49.230469 27.679688 20.097656 20.914062 19.933594 20.875 Z M 14.523438 37.132812 C 12.988281 35.828125 14.054688 33.371094 15.738281 32.773438 C 17.902344 31.9375 22.113281 32.585938 23.996094 33.9375 C 25.328125 34.792969 24.722656 37.050781 24.121094 37.722656 C 22.972656 39.089844 20.957031 38.816406 19.371094 38.652344 C 17.710938 38.359375 15.863281 38.261719 14.523438 37.132812 Z M 14.109375 45.125 C 11.460938 44.203125 11.773438 41.066406 14.183594 40.070312 C 16.546875 39.15625 21.273438 40.0625 23.394531 41.40625 C 24.773438 42.195312 24.648438 44.136719 23.566406 45.132812 C 22.980469 45.6875 22.171875 45.90625 21.394531 46.03125 C 18.960938 46.226562 16.421875 45.898438 14.109375 45.125 Z M 13.8125 52.429688 C 11.730469 51.308594 12.582031 48.429688 14.546875 47.722656 C 16.851562 46.917969 19.890625 47.324219 21.578125 49.199219 C 23.039062 51.058594 21.140625 53.28125 19.109375 53.390625 C 17.316406 53.558594 15.390625 53.316406 13.8125 52.429688 Z M 47.941406 34.152344 C 47.882812 34.375 47.832031 34.601562 47.777344 34.816406 C 47.273438 34.394531 46.742188 34.003906 46.191406 33.65625 C 43.886719 32.019531 40.78125 32.035156 39.683594 35.03125 C 38.707031 39.015625 43.777344 41.628906 45.414062 44.378906 C 43.449219 52.203125 41.441406 60.015625 39.402344 67.824219 C 39.300781 68.207031 39.1875 68.578125 39.085938 68.960938 C 37.839844 68.738281 14.78125 63.441406 13.335938 63.027344 C 13.988281 60.128906 14.613281 57.226562 15.242188 54.320312 C 16.746094 54.675781 18.332031 54.84375 19.859375 54.511719 C 23.039062 53.964844 24.617188 49.996094 21.949219 47.796875 C 20.304688 46.71875 22.617188 47.796875 24.46875 45.988281 C 26.335938 44.128906 25.972656 41.164062 23.535156 40.027344 C 22.609375 39.679688 23.707031 39.714844 24.097656 39.363281 C 26.078125 38.152344 26.847656 34.867188 25.03125 33.191406 C 23.699219 31.960938 21.832031 31.605469 20.105469 31.347656 C 20.710938 28.433594 21.3125 25.511719 21.90625 22.601562 C 23.46875 22.949219 25.019531 23.304688 26.582031 23.660156 C 32.296875 24.972656 37.996094 26.351562 43.703125 27.6875 C 50.285156 29.539062 49.535156 27.113281 47.941406 34.152344 Z M 34.609375 29.265625 C 31.8125 28.359375 29.902344 29.785156 29.191406 32.527344 C 27.878906 36.800781 26.921875 41.183594 25.871094 45.523438 C 25.210938 48.304688 24.582031 51.09375 23.921875 53.871094 C 23.351562 56.378906 22.46875 59.464844 24.152344 61.714844 C 25.417969 62.976562 27.550781 63.433594 29.191406 62.703125 C 32.042969 61.160156 32.125 57.367188 32.933594 54.578125 C 33.339844 52.851562 36.023438 41.671875 36.882812 37.789062 C 37.667969 34.734375 38.625 30.34375 34.609375 29.265625 Z M 36.304688 34.410156 C 34.785156 42.011719 32.792969 49.515625 31.058594 57.066406 C 30.6875 58.636719 30.109375 60.621094 29.058594 61.34375 C 28.167969 62.082031 26.484375 61.898438 25.308594 61.125 C 24.796875 60.820312 24.5 59.683594 24.484375 59.398438 C 24.386719 58.570312 24.433594 57.730469 24.535156 56.902344 C 24.527344 57.035156 24.527344 56.976562 24.535156 56.902344 C 25.128906 57.042969 25.722656 57.183594 26.316406 57.316406 C 27.09375 57.523438 27.417969 56.328125 26.648438 56.113281 C 26.019531 55.964844 25.386719 55.816406 24.757812 55.664062 C 25.070312 54.335938 25.402344 53.007812 25.707031 51.671875 C 26.417969 51.707031 27.976562 52.636719 28.300781 51.664062 C 28.5 50.59375 26.671875 50.75 25.988281 50.460938 C 26.308594 49.074219 26.632812 47.6875 26.953125 46.304688 C 27.566406 46.445312 28.175781 46.59375 28.78125 46.734375 C 29.546875 46.949219 29.886719 45.746094 29.109375 45.53125 C 28.480469 45.382812 27.863281 45.242188 27.234375 45.089844 C 27.566406 43.707031 27.894531 42.320312 28.234375 40.941406 C 28.945312 40.976562 30.472656 41.886719 30.792969 40.933594 C 30.976562 39.855469 29.210938 40.035156 28.53125 39.738281 C 28.863281 38.410156 29.191406 37.082031 29.546875 35.761719 C 30.117188 35.894531 30.679688 36.027344 31.25 36.160156 C 31.5625 36.234375 31.933594 36.0625 32.007812 35.730469 C 32.082031 35.414062 31.910156 35.039062 31.578125 34.964844 C 31.007812 34.832031 30.449219 34.699219 29.878906 34.566406 C 29.945312 34.335938 30.679688 31.472656 31.613281 30.667969 C 32.792969 29.886719 34.453125 30.335938 35.496094 31.113281 C 36.519531 32.011719 36.394531 33.097656 36.304688 34.410156 Z M 36.304688 34.410156 " fill-opacity="1" fill-rule="nonzero"/></g></svg>