<svg xmlns="http://www.w3.org/2000/svg" xmlns:xlink="http://www.w3.org/1999/xlink" width="100" zoomAndPan="magnify" viewBox="0 0 75 74.999997" height="100" preserveAspectRatio="xMidYMid meet" version="1.0"><defs><clipPath id="620575248a"><path d="M 7 33 L 68 33 L 68 74.394531 L 7 74.394531 Z M 7 33 " clip-rule="nonzero"/></clipPath><clipPath id="1d7228c3f2"><path d="M 52 0.894531 L 61 0.894531 L 61 27 L 52 27 Z M 52 0.894531 " clip-rule="nonzero"/></clipPath><clipPath id="1ada334226"><path d="M 14 0.894531 L 23 0.894531 L 23 26 L 14 26 Z M 14 0.894531 " clip-rule="nonzero"/></clipPath><clipPath id="c1ba3a1263"><path d="M 2.128906 53 L 6 53 L 6 56 L 2.128906 56 Z M 2.128906 53 " clip-rule="nonzero"/></clipPath><clipPath id="ec65d95da1"><path d="M 2.128906 67 L 6 67 L 6 70 L 2.128906 70 Z M 2.128906 67 " clip-rule="nonzero"/></clipPath><clipPath id="e19546b2bd"><path d="M 2.128906 48 L 6 48 L 6 52 L 2.128906 52 Z M 2.128906 48 " clip-rule="nonzero"/></clipPath><clipPath id="277ae478dc"><path d="M 2.128906 58 L 5 58 L 5 61 L 2.128906 61 Z M 2.128906 58 " clip-rule="nonzero"/></clipPath><clipPath id="7900d7ad26"><path d="M 2.128906 62 L 6 62 L 6 66 L 2.128906 66 Z M 2.128906 62 " clip-rule="nonzero"/></clipPath><clipPath id="67d60a897c"><path d="M 69 53 L 72.628906 53 L 72.628906 56 L 69 56 Z M 69 53 " clip-rule="nonzero"/></clipPath><clipPath id="867e5e7146"><path d="M 69 58 L 72.628906 58 L 72.628906 61 L 69 61 Z M 69 58 " clip-rule="nonzero"/></clipPath><clipPath id="86e00b4ec9"><path d="M 69 62 L 72.628906 62 L 72.628906 66 L 69 66 Z M 69 62 " clip-rule="nonzero"/></clipPath></defs><path fill="#000000" d="M 23.523438 33.40625 L 25.03125 35.304688 L 29.5625 31.65625 C 29.707031 31.539062 29.816406 31.398438 29.894531 31.234375 C 29.976562 31.066406 30.015625 30.890625 30.015625 30.707031 C 30.015625 30.523438 29.976562 30.347656 29.894531 30.179688 C 29.816406 30.011719 29.707031 29.871094 29.5625 29.757812 L 25.03125 26.105469 L 23.523438 28.003906 L 25.359375 29.488281 L 13.277344 29.488281 L 13.277344 31.921875 L 25.359375 31.921875 Z M 23.523438 33.40625 " fill-opacity="1" fill-rule="nonzero"/><path fill="#000000" d="M 49.84375 35.304688 L 51.355469 33.40625 L 49.519531 31.921875 L 61.597656 31.921875 L 61.597656 29.488281 L 49.519531 29.488281 L 51.367188 28.003906 L 49.855469 26.105469 L 45.328125 29.757812 C 45.183594 29.871094 45.074219 30.011719 44.992188 30.179688 C 44.914062 30.347656 44.875 30.523438 44.875 30.707031 C 44.875 30.890625 44.914062 31.066406 44.992188 31.234375 C 45.074219 31.398438 45.183594 31.539062 45.328125 31.65625 Z M 49.84375 35.304688 " fill-opacity="1" fill-rule="nonzero"/><g clip-path="url(#620575248a)"><path fill="#000000" d="M 61.164062 40.660156 L 60.667969 39.882812 L 57.890625 34.5625 L 55.644531 35.453125 L 58.578125 41.097656 L 59.132812 41.976562 C 59.4375 42.449219 59.738281 42.898438 60.015625 43.363281 C 59.558594 43.886719 53.84375 50.175781 42.875 50.175781 L 30.792969 50.175781 C 27.804688 50.242188 24.902344 49.761719 22.089844 48.734375 C 19.273438 47.710938 16.742188 46.207031 14.484375 44.226562 L 15.804688 42.109375 L 18.894531 36.609375 L 18.957031 36.5 C 19.199219 35.9375 19.425781 35.355469 19.644531 34.78125 L 17.375 33.929688 C 17.179688 34.453125 16.988281 34.964844 16.757812 35.464844 L 13.773438 40.792969 C 12.566406 42.625 11.5 44.535156 10.570312 46.527344 C 8.847656 50.699219 7.957031 55.050781 7.902344 59.570312 C 7.902344 59.570312 7.902344 59.632812 7.902344 59.667969 C 7.863281 59.84375 7.863281 60.015625 7.902344 60.191406 C 7.871094 64.53125 8.105469 68.855469 8.601562 73.164062 L 8.601562 73.296875 L 11.019531 73.296875 C 11.019531 73.164062 11.019531 73.042969 11.019531 72.894531 C 10.589844 69.089844 10.355469 65.273438 10.320312 61.445312 C 15.054688 62.589844 29.851562 66.617188 35.976562 73.347656 C 36.625 74.066406 37.429688 74.429688 38.394531 74.429688 C 39.351562 74.425781 40.160156 74.070312 40.808594 73.359375 C 46.582031 67.007812 59.8125 63.027344 64.847656 61.699219 C 64.847656 65.679688 64.472656 69.550781 64.160156 72.871094 L 64.160156 73.152344 L 66.574219 73.445312 L 66.574219 73.140625 C 67.324219 65.449219 68.339844 54.886719 64.570312 46.476562 C 63.589844 44.449219 62.453125 42.507812 61.164062 40.660156 Z M 38.960938 71.714844 C 38.796875 71.902344 38.589844 71.996094 38.34375 71.996094 C 38.09375 71.992188 37.890625 71.898438 37.726562 71.703125 C 30.832031 64.132812 14.667969 59.910156 10.355469 58.949219 C 10.453125 54.972656 11.257812 51.148438 12.769531 47.476562 C 12.941406 47.121094 13.121094 46.757812 13.300781 46.402344 C 15.746094 48.472656 18.476562 50.042969 21.488281 51.113281 C 24.5 52.179688 27.601562 52.679688 30.792969 52.609375 L 42.875 52.609375 C 44.566406 52.65625 46.246094 52.535156 47.914062 52.25 C 49.582031 51.964844 51.203125 51.515625 52.785156 50.910156 C 54.367188 50.304688 55.875 49.550781 57.308594 48.644531 C 58.742188 47.742188 60.074219 46.707031 61.308594 45.539062 C 61.660156 46.171875 61.984375 46.757812 62.289062 47.476562 C 63.824219 51.226562 64.628906 55.132812 64.703125 59.195312 C 59.28125 60.59375 45.339844 64.707031 38.960938 71.714844 Z M 38.960938 71.714844 " fill-opacity="1" fill-rule="nonzero"/></g><g clip-path="url(#1d7228c3f2)"><path fill="#000000" d="M 55.558594 25.667969 C 54.351562 17.210938 57.769531 8.15625 60.835938 2.046875 L 58.6875 0.953125 C 55.488281 7.367188 51.933594 16.929688 53.144531 26.007812 Z M 55.558594 25.667969 " fill-opacity="1" fill-rule="nonzero"/></g><g clip-path="url(#1ada334226)"><path fill="#000000" d="M 19.464844 25.691406 L 21.878906 25.984375 C 22.941406 16.808594 19.378906 7.304688 16.164062 0.953125 L 14.015625 2.046875 C 17.070312 8.109375 20.527344 17.125 19.464844 25.691406 Z M 19.464844 25.691406 " fill-opacity="1" fill-rule="nonzero"/></g><path fill="#000000" d="M 35.023438 35.574219 L 37.4375 35.574219 L 37.4375 39.222656 L 35.023438 39.222656 Z M 35.023438 35.574219 " fill-opacity="1" fill-rule="nonzero"/><path fill="#000000" d="M 10.050781 21.945312 L 9.859375 22.089844 C 9.769531 22.175781 9.671875 22.25 9.570312 22.320312 C 9.195312 22.554688 8.851562 22.820312 8.53125 23.125 L 10.171875 24.902344 C 10.398438 24.691406 10.644531 24.503906 10.910156 24.34375 L 11.019531 24.257812 L 11.40625 23.953125 L 11.597656 23.792969 C 11.761719 23.671875 11.921875 23.542969 12.070312 23.40625 L 10.332031 21.6875 Z M 10.050781 21.945312 " fill-opacity="1" fill-rule="nonzero"/><path fill="#000000" d="M 8.6875 17.40625 C 8.761719 17.566406 8.847656 17.71875 8.941406 17.867188 L 10.972656 16.542969 L 10.851562 16.335938 C 10.625 15.863281 10.433594 15.382812 10.269531 14.886719 L 7.988281 15.691406 C 8.179688 16.277344 8.414062 16.851562 8.6875 17.40625 Z M 8.6875 17.40625 " fill-opacity="1" fill-rule="nonzero"/><path fill="#000000" d="M 7.128906 11.359375 C 7.128906 11.867188 7.226562 12.378906 7.296875 12.878906 C 7.296875 13.097656 7.371094 13.316406 7.417969 13.546875 L 9.835938 13.085938 C 9.835938 12.902344 9.761719 12.707031 9.738281 12.515625 C 9.667969 12.0625 9.617188 11.625 9.582031 11.175781 Z M 7.128906 11.359375 " fill-opacity="1" fill-rule="nonzero"/><path fill="#000000" d="M 10.777344 20.410156 C 10.785156 20.5 10.785156 20.589844 10.777344 20.679688 L 13.195312 20.679688 C 13.210938 20.464844 13.210938 20.25 13.195312 20.035156 C 13.054688 19.285156 12.734375 18.625 12.238281 18.050781 L 10.304688 19.558594 C 10.53125 19.804688 10.691406 20.089844 10.777344 20.410156 Z M 10.777344 20.410156 " fill-opacity="1" fill-rule="nonzero"/><path fill="#000000" d="M 9.652344 8.144531 L 7.238281 7.792969 C 7.238281 8.230469 7.128906 8.667969 7.105469 9.105469 L 9.519531 9.242188 C 9.539062 8.875 9.582031 8.511719 9.652344 8.144531 Z M 9.652344 8.144531 " fill-opacity="1" fill-rule="nonzero"/><path fill="#000000" d="M 5.566406 37.1875 L 5.808594 34.863281 L 8.210938 35.117188 L 7.96875 37.441406 Z M 5.566406 37.1875 " fill-opacity="1" fill-rule="nonzero"/><path fill="#000000" d="M 7.9375 32.542969 C 7.878906 32.082031 7.851562 31.621094 7.855469 31.15625 C 7.855469 30.914062 7.855469 30.667969 7.855469 30.4375 L 5.4375 30.28125 C 5.4375 30.574219 5.4375 30.863281 5.4375 31.15625 C 5.4375 31.722656 5.472656 32.285156 5.546875 32.847656 Z M 7.9375 32.542969 " fill-opacity="1" fill-rule="nonzero"/><path fill="#000000" d="M 8.976562 26.472656 L 6.863281 25.253906 C 6.445312 26.027344 6.117188 26.839844 5.886719 27.6875 L 8.214844 28.320312 C 8.390625 27.671875 8.644531 27.054688 8.976562 26.472656 Z M 8.976562 26.472656 " fill-opacity="1" fill-rule="nonzero"/><g clip-path="url(#c1ba3a1263)"><path fill="#000000" d="M 5.195312 53.488281 L 2.78125 53.292969 C 2.71875 54.082031 2.671875 54.875 2.636719 55.726562 L 5.050781 55.824219 C 5.085938 55.042969 5.125 54.242188 5.195312 53.488281 Z M 5.195312 53.488281 " fill-opacity="1" fill-rule="nonzero"/></g><path fill="#000000" d="M 4.035156 46.136719 L 6.34375 46.84375 C 6.550781 46.152344 6.808594 45.484375 7.117188 44.835938 L 4.929688 43.777344 C 4.570312 44.539062 4.273438 45.324219 4.035156 46.136719 Z M 4.035156 46.136719 " fill-opacity="1" fill-rule="nonzero"/><g clip-path="url(#ec65d95da1)"><path fill="#000000" d="M 5.378906 67.324219 L 2.960938 67.53125 C 3.035156 68.382812 3.117188 69.171875 3.191406 69.878906 L 5.605469 69.632812 C 5.523438 68.941406 5.449219 68.164062 5.378906 67.324219 Z M 5.378906 67.324219 " fill-opacity="1" fill-rule="nonzero"/></g><path fill="#000000" d="M 5.078125 41.847656 L 5.324219 39.523438 L 7.726562 39.78125 L 7.480469 42.105469 Z M 5.078125 41.847656 " fill-opacity="1" fill-rule="nonzero"/><g clip-path="url(#e19546b2bd)"><path fill="#000000" d="M 5.800781 48.960938 L 3.382812 48.472656 C 3.238281 49.226562 3.105469 50.03125 2.984375 50.90625 L 5.402344 51.222656 C 5.535156 50.46875 5.65625 49.714844 5.800781 48.960938 Z M 5.800781 48.960938 " fill-opacity="1" fill-rule="nonzero"/></g><g clip-path="url(#277ae478dc)"><path fill="#000000" d="M 4.992188 58.792969 L 4.992188 58.085938 L 2.574219 58.085938 L 2.574219 58.816406 C 2.574219 59.375 2.574219 59.910156 2.574219 60.460938 L 4.992188 60.460938 C 4.992188 59.910156 4.992188 59.328125 4.992188 58.792969 Z M 4.992188 58.792969 " fill-opacity="1" fill-rule="nonzero"/></g><g clip-path="url(#7900d7ad26)"><path fill="#000000" d="M 5.074219 62.699219 L 2.660156 62.808594 C 2.660156 63.609375 2.746094 64.402344 2.792969 65.167969 L 5.207031 65.011719 C 5.148438 64.269531 5.113281 63.488281 5.074219 62.699219 Z M 5.074219 62.699219 " fill-opacity="1" fill-rule="nonzero"/></g><path fill="#000000" d="M 3.457031 72.25 C 3.554688 73.03125 3.625 73.46875 3.625 73.46875 L 6.042969 73.101562 C 6.042969 73.101562 5.96875 72.675781 5.886719 71.886719 Z M 3.457031 72.25 " fill-opacity="1" fill-rule="nonzero"/><path fill="#000000" d="M 68.917969 9.105469 C 68.917969 8.667969 68.859375 8.230469 68.796875 7.792969 L 66.382812 8.144531 C 66.429688 8.511719 66.46875 8.875 66.492188 9.242188 Z M 68.917969 9.105469 " fill-opacity="1" fill-rule="nonzero"/><path fill="#000000" d="M 68.714844 12.878906 C 68.796875 12.378906 68.859375 11.855469 68.894531 11.34375 L 66.480469 11.164062 C 66.480469 11.613281 66.382812 12.0625 66.324219 12.515625 C 66.324219 12.695312 66.261719 12.890625 66.226562 13.074219 L 68.640625 13.535156 C 68.675781 13.316406 68.703125 13.097656 68.714844 12.878906 Z M 68.714844 12.878906 " fill-opacity="1" fill-rule="nonzero"/><path fill="#000000" d="M 65.222656 20.398438 C 65.3125 20.078125 65.46875 19.792969 65.695312 19.546875 L 63.796875 18.039062 C 63.300781 18.617188 62.976562 19.28125 62.832031 20.035156 C 62.820312 20.246094 62.820312 20.457031 62.832031 20.667969 L 65.246094 20.667969 C 65.222656 20.59375 65.222656 20.507812 65.222656 20.398438 Z M 65.222656 20.398438 " fill-opacity="1" fill-rule="nonzero"/><path fill="#000000" d="M 67.335938 17.40625 C 67.609375 16.851562 67.839844 16.285156 68.039062 15.703125 L 65.753906 14.886719 C 65.605469 15.378906 65.429688 15.863281 65.222656 16.335938 L 65.101562 16.542969 L 67.144531 17.84375 C 67.179688 17.699219 67.265625 17.550781 67.335938 17.40625 Z M 67.335938 17.40625 " fill-opacity="1" fill-rule="nonzero"/><path fill="#000000" d="M 66.429688 22.320312 L 66.128906 22.089844 L 65.960938 21.957031 L 65.671875 21.6875 L 64.015625 23.40625 C 64.179688 23.570312 64.351562 23.730469 64.535156 23.878906 L 64.691406 24 L 65.078125 24.316406 L 65.1875 24.402344 C 65.449219 24.566406 65.695312 24.753906 65.921875 24.960938 L 67.566406 23.1875 C 67.246094 22.882812 66.902344 22.613281 66.527344 22.382812 Z M 65.671875 23.355469 L 65.730469 23.285156 Z M 65.671875 23.355469 " fill-opacity="1" fill-rule="nonzero"/><path fill="#000000" d="M 67.796875 28.371094 L 70.128906 27.726562 C 69.90625 26.871094 69.585938 26.0625 69.160156 25.292969 L 67.046875 26.507812 C 67.371094 27.097656 67.621094 27.71875 67.796875 28.371094 Z M 67.796875 28.371094 " fill-opacity="1" fill-rule="nonzero"/><path fill="#000000" d="M 69.570312 51.285156 L 71.988281 50.992188 C 71.878906 50.140625 71.757812 49.335938 71.613281 48.558594 L 69.199219 49.03125 C 69.355469 49.75 69.476562 50.492188 69.570312 51.285156 Z M 69.570312 51.285156 " fill-opacity="1" fill-rule="nonzero"/><g clip-path="url(#67d60a897c)"><path fill="#000000" d="M 69.875 55.824219 L 72.289062 55.824219 C 72.289062 55.019531 72.289062 54.214844 72.179688 53.390625 L 69.765625 53.558594 C 69.824219 54.289062 69.851562 55.042969 69.875 55.824219 Z M 69.875 55.824219 " fill-opacity="1" fill-rule="nonzero"/></g><path fill="#000000" d="M 68.171875 31.15625 C 68.167969 31.617188 68.136719 32.074219 68.085938 32.53125 L 70.503906 32.824219 C 70.574219 32.269531 70.609375 31.714844 70.609375 31.15625 C 70.609375 30.851562 70.609375 30.558594 70.609375 30.269531 L 68.195312 30.425781 C 68.160156 30.707031 68.171875 30.914062 68.171875 31.15625 Z M 68.171875 31.15625 " fill-opacity="1" fill-rule="nonzero"/><g clip-path="url(#867e5e7146)"><path fill="#000000" d="M 69.886719 58.121094 C 69.886719 58.890625 69.886719 59.65625 69.8125 60.410156 L 72.230469 60.519531 C 72.230469 59.707031 72.253906 58.898438 72.300781 58.085938 Z M 69.886719 58.121094 " fill-opacity="1" fill-rule="nonzero"/></g><path fill="#000000" d="M 70.996094 46.210938 C 70.863281 45.808594 70.730469 45.417969 70.585938 44.992188 L 70.585938 44.203125 L 68.171875 44.300781 L 68.171875 45.515625 L 68.253906 45.710938 C 68.398438 46.074219 68.53125 46.464844 68.664062 46.867188 Z M 70.996094 46.210938 " fill-opacity="1" fill-rule="nonzero"/><g clip-path="url(#86e00b4ec9)"><path fill="#000000" d="M 69.511719 65.023438 L 71.925781 65.242188 C 71.988281 64.476562 72.058594 63.695312 72.109375 62.882812 L 69.691406 62.710938 C 69.632812 63.5625 69.570312 64.28125 69.511719 65.023438 Z M 69.511719 65.023438 " fill-opacity="1" fill-rule="nonzero"/></g><path fill="#000000" d="M 67.953125 39.6875 L 70.367188 39.589844 L 70.460938 41.921875 L 68.046875 42.023438 Z M 67.953125 39.6875 " fill-opacity="1" fill-rule="nonzero"/><path fill="#000000" d="M 67.761719 35.027344 L 70.175781 34.925781 L 70.273438 37.257812 L 67.859375 37.359375 Z M 67.761719 35.027344 " fill-opacity="1" fill-rule="nonzero"/><path fill="#000000" d="M 68.992188 69.648438 L 71.40625 69.976562 C 71.492188 69.269531 71.589844 68.480469 71.6875 67.625 L 69.269531 67.347656 C 69.183594 68.148438 69.089844 68.929688 68.992188 69.648438 Z M 68.992188 69.648438 " fill-opacity="1" fill-rule="nonzero"/><path fill="#000000" d="M 68.472656 73.078125 L 70.886719 73.515625 C 70.886719 73.515625 70.960938 73.066406 71.09375 72.300781 L 68.679688 71.921875 C 68.546875 72.652344 68.472656 73.078125 68.472656 73.078125 Z M 68.472656 73.078125 " fill-opacity="1" fill-rule="nonzero"/></svg>