<?xml version="1.0" encoding="utf-8"?>
<!-- Generator: Adobe Illustrator 24.0.1, SVG Export Plug-In . SVG Version: 6.00 Build 0)  -->
<svg version="1.1" id="Layer_1" xmlns="http://www.w3.org/2000/svg" xmlns:xlink="http://www.w3.org/1999/xlink" x="0px" y="0px"
	 viewBox="0 0 1666.96 1666.96" style="enable-background:new 0 0 1666.96 1666.96;" xml:space="preserve">
<style type="text/css">
	.st0{fill:#39B54A;}
	.st1{fill:#231F20;}
</style>
<g>
	<g>
		<path class="st0" d="M769.82,946.68c-1.55-0.61-2.82-1.51-3.83-2.71c-1.01-1.2-1.72-2.69-2.13-4.46l6.06-2.67
			c0.47,1.45,1.19,2.54,2.16,3.29c0.97,0.75,2.15,1.12,3.53,1.12c1.43,0,2.54-0.32,3.34-0.95c0.8-0.63,1.2-1.51,1.2-2.64v-1.6
			c0-0.81-0.23-1.49-0.7-2.02c-0.47-0.53-1.07-0.95-1.82-1.26c-0.75-0.31-1.73-0.64-2.94-1.01c-0.05-0.03-0.1-0.06-0.14-0.06
			c-0.04-0.01-0.07-0.02-0.09-0.04l-0.33-0.07c-1.98-0.6-3.6-1.21-4.85-1.85c-1.25-0.63-2.32-1.61-3.2-2.93
			c-0.88-1.32-1.32-3.09-1.32-5.3v-1c0-2.08,0.44-3.86,1.31-5.36c0.87-1.49,2.14-2.63,3.8-3.42c1.66-0.78,3.68-1.17,6.06-1.17
			c1.8,0,3.38,0.29,4.75,0.86s2.51,1.44,3.43,2.59c0.92,1.16,1.61,2.59,2.07,4.3l-5.76,2.69c-0.48-1.36-1.14-2.4-1.97-3.12
			c-0.83-0.71-1.8-1.07-2.89-1.07c-1.4,0-2.47,0.29-3.22,0.88c-0.75,0.59-1.12,1.4-1.12,2.43v1.22c0,0.9,0.25,1.62,0.75,2.18
			c0.5,0.56,1.12,1,1.85,1.32c0.73,0.32,1.75,0.69,3.04,1.11c0.11,0.02,0.22,0.05,0.32,0.09c0.1,0.04,0.2,0.08,0.3,0.11
			c0.1,0.02,0.18,0.04,0.24,0.06s0.13,0.05,0.21,0.06c1.81,0.57,3.31,1.17,4.5,1.82c1.19,0.65,2.18,1.61,2.99,2.88
			s1.21,2.96,1.21,5.08v1.55c0,2.08-0.45,3.86-1.35,5.36c-0.9,1.5-2.2,2.63-3.91,3.42c-1.71,0.78-3.76,1.17-6.14,1.17
			C773.17,947.58,771.36,947.28,769.82,946.68z"/>
		<path class="st0" d="M803.41,938.86c0,0.95,0.25,1.67,0.75,2.18c0.5,0.51,1.23,0.75,2.2,0.74c0.95,0.02,1.67-0.24,2.16-0.77
			c0.49-0.53,0.74-1.29,0.74-2.27l0.35,4.06c-0.45,1.48-1.14,2.65-2.08,3.51s-2.1,1.28-3.48,1.28c-2.31,0-4.07-0.73-5.28-2.19
			s-1.81-3.6-1.81-6.41v-17.66h6.46V938.86z M809.25,921.32h6.43v25.89h-6.43V921.32z"/>
		<path class="st0" d="M826.65,921.32h6.49v36.42h-6.49V921.32z M834.99,946.43c-0.99-0.77-1.73-1.87-2.21-3.28l0.35-4.76
			c0,0.7,0.11,1.29,0.34,1.77c0.22,0.48,0.56,0.85,1,1.1c0.44,0.25,0.98,0.37,1.61,0.37c0.95,0,1.68-0.32,2.19-0.97
			c0.51-0.65,0.77-1.56,0.77-2.74v-7.33c0-1.16-0.26-2.07-0.77-2.73c-0.51-0.66-1.25-0.99-2.19-0.99c-0.63,0-1.17,0.13-1.61,0.38
			c-0.44,0.25-0.77,0.62-1,1.11c-0.22,0.49-0.34,1.08-0.34,1.76l-0.52-4.46c0.65-1.5,1.49-2.66,2.52-3.49
			c1.03-0.83,2.17-1.25,3.42-1.25c1.46,0,2.71,0.36,3.75,1.07c1.04,0.71,1.83,1.76,2.37,3.14s0.81,3.05,0.81,5.01v8.23
			c0,1.96-0.27,3.63-0.82,5c-0.55,1.37-1.35,2.42-2.39,3.14c-1.05,0.72-2.3,1.08-3.77,1.08
			C837.15,947.58,835.98,947.2,834.99,946.43z"/>
		<path class="st0" d="M855.92,921.32h6.49v36.42h-6.49V921.32z M864.27,946.43c-0.99-0.77-1.73-1.87-2.21-3.28l0.35-4.76
			c0,0.7,0.11,1.29,0.34,1.77c0.22,0.48,0.56,0.85,1,1.1c0.44,0.25,0.98,0.37,1.61,0.37c0.95,0,1.68-0.32,2.19-0.97
			c0.51-0.65,0.77-1.56,0.77-2.74v-7.33c0-1.16-0.26-2.07-0.77-2.73c-0.51-0.66-1.25-0.99-2.19-0.99c-0.63,0-1.17,0.13-1.61,0.38
			c-0.44,0.25-0.77,0.62-1,1.11c-0.22,0.49-0.34,1.08-0.34,1.76l-0.52-4.46c0.65-1.5,1.49-2.66,2.52-3.49
			c1.03-0.83,2.17-1.25,3.42-1.25c1.46,0,2.71,0.36,3.75,1.07c1.04,0.71,1.83,1.76,2.37,3.14s0.81,3.05,0.81,5.01v8.23
			c0,1.96-0.27,3.63-0.82,5c-0.55,1.37-1.35,2.42-2.39,3.14c-1.05,0.72-2.3,1.08-3.77,1.08
			C866.42,947.58,865.26,947.2,864.27,946.43z"/>
		<path class="st0" d="M891.69,939.01c0,0.6,0.16,1.06,0.49,1.4c0.32,0.33,0.78,0.5,1.36,0.5h0.97v6.31h-2.87
			c-2.03,0-3.61-0.6-4.74-1.8c-1.13-1.2-1.7-2.88-1.7-5.06v-29.41h6.49V939.01z"/>
		<path class="st0" d="M907.55,946.43c-1.49-0.77-2.63-1.89-3.43-3.36c-0.8-1.46-1.2-3.22-1.2-5.26v-6.63
			c0-2.16,0.38-4.01,1.15-5.54c0.76-1.53,1.87-2.7,3.32-3.51c1.45-0.8,3.19-1.21,5.24-1.21c2,0,3.7,0.44,5.12,1.32
			c1.41,0.88,2.49,2.17,3.23,3.85c0.74,1.69,1.11,3.73,1.11,6.13v4.56h-14.41v-4.62h8.3v-1.85c0-1.1-0.31-1.97-0.94-2.6
			c-0.62-0.64-1.42-0.96-2.41-0.96c-1.11,0-1.99,0.36-2.62,1.08c-0.63,0.72-0.95,1.74-0.95,3.06v7.03c0,1.26,0.32,2.23,0.97,2.91
			c0.65,0.67,1.56,1.01,2.74,1.01c0.9,0,1.64-0.22,2.23-0.67c0.59-0.45,1.03-1.11,1.31-1.97l5.46,2.07c-0.5,2.1-1.5,3.67-3.01,4.72
			c-1.5,1.06-3.45,1.58-5.82,1.58C910.84,947.58,909.04,947.2,907.55,946.43z"/>
		<path class="st0" d="M970.08,910.95h7.38v36.27h-5.86v-26.74l0.32,1.6l-6.11,19.9h-4.54l-6.11-19.4l0.37-2.1v26.74h-5.91v-36.27
			h7.43l6.48,22.05L970.08,910.95z"/>
		<path class="st0" d="M989.64,945.64c-1.19-1.3-1.78-3.22-1.78-5.76c0-2.64,0.75-4.65,2.25-6.03c1.49-1.38,3.72-2.07,6.66-2.07
			h4.19l0.35,5.06h-4.37c-1.01,0-1.78,0.25-2.3,0.76c-0.52,0.51-0.79,1.27-0.79,2.28c0,0.8,0.24,1.4,0.72,1.8
			c0.48,0.4,1.21,0.6,2.17,0.6c1.35,0,2.36-0.22,3.04-0.67c0.68-0.45,1.02-1.12,1.02-2.02l0.47,2.97c-0.07,1.1-0.39,2.02-0.96,2.77
			s-1.32,1.31-2.24,1.69c-0.92,0.38-1.96,0.57-3.11,0.57C992.61,947.58,990.83,946.94,989.64,945.64z M1000.8,929.7
			c0-0.93-0.29-1.65-0.87-2.16c-0.58-0.51-1.41-0.76-2.47-0.76c-0.78,0-1.49,0.18-2.13,0.52c-0.64,0.35-1.14,0.83-1.51,1.45
			l-5.06-2.07c0.51-1.81,1.54-3.23,3.07-4.25c1.53-1.02,3.43-1.53,5.71-1.53c1.94,0,3.61,0.35,5,1.04c1.39,0.69,2.45,1.68,3.18,2.98
			c0.73,1.3,1.1,2.86,1.1,4.69v17.61h-6.01V929.7z"/>
		<path class="st0" d="M1017.78,921.32h6.74v25.89h-6.74V921.32z M1030.28,927.58c-0.38-0.08-0.8-0.12-1.27-0.12
			c-1.41,0-2.52,0.44-3.31,1.32c-0.79,0.88-1.18,2.1-1.18,3.66l-0.52-6.61c0.73-1.54,1.67-2.75,2.83-3.63
			c1.16-0.88,2.43-1.31,3.81-1.31c0.53,0,1.02,0.09,1.46,0.26c0.44,0.17,0.82,0.43,1.13,0.76l-1.97,6.06
			C1030.99,927.8,1030.66,927.67,1030.28,927.58z"/>
		<path class="st0" d="M1041.77,910.95h6.46v36.27h-6.46V910.95z M1045.36,936.86l9.9-15.54h6.76l-16.09,23.57L1045.36,936.86z
			 M1050.13,934.02l4.74-3.77l8.3,16.96h-7.21L1050.13,934.02z"/>
		<path class="st0" d="M1074.6,946.43c-1.49-0.77-2.63-1.89-3.43-3.36c-0.8-1.46-1.2-3.22-1.2-5.26v-6.63
			c0-2.16,0.38-4.01,1.15-5.54c0.76-1.53,1.87-2.7,3.32-3.51c1.45-0.8,3.19-1.21,5.24-1.21c2,0,3.7,0.44,5.12,1.32
			c1.41,0.88,2.49,2.17,3.23,3.85c0.74,1.69,1.11,3.73,1.11,6.13v4.56h-14.41v-4.62h8.3v-1.85c0-1.1-0.31-1.97-0.94-2.6
			c-0.62-0.64-1.42-0.96-2.41-0.96c-1.11,0-1.99,0.36-2.62,1.08c-0.63,0.72-0.95,1.74-0.95,3.06v7.03c0,1.26,0.32,2.23,0.97,2.91
			c0.65,0.67,1.56,1.01,2.74,1.01c0.9,0,1.64-0.22,2.23-0.67c0.59-0.45,1.03-1.11,1.31-1.97l5.46,2.07c-0.5,2.1-1.5,3.67-3.01,4.72
			c-1.5,1.06-3.45,1.58-5.82,1.58C1077.89,947.58,1076.09,947.2,1074.6,946.43z"/>
		<path class="st0" d="M1097.46,921.32h12.17v5.74h-12.17V921.32z M1101.5,945.6c-1.08-1.16-1.62-2.86-1.62-5.12v-26.69h6.51v25.34
			c0,0.61,0.14,1.08,0.4,1.4c0.27,0.31,0.64,0.47,1.12,0.47h1.72v6.33h-3.07C1104.26,947.34,1102.58,946.76,1101.5,945.6z"/>
		<path class="st0" d="M1119.6,921.32h6.49v36.42h-6.49V921.32z M1127.94,946.43c-0.99-0.77-1.73-1.87-2.21-3.28l0.35-4.76
			c0,0.7,0.11,1.29,0.34,1.77c0.22,0.48,0.56,0.85,1,1.1c0.44,0.25,0.98,0.37,1.61,0.37c0.95,0,1.68-0.32,2.19-0.97
			c0.51-0.65,0.77-1.56,0.77-2.74v-7.33c0-1.16-0.26-2.07-0.77-2.73c-0.51-0.66-1.25-0.99-2.19-0.99c-0.63,0-1.17,0.13-1.61,0.38
			c-0.44,0.25-0.77,0.62-1,1.11c-0.22,0.49-0.34,1.08-0.34,1.76l-0.52-4.46c0.65-1.5,1.49-2.66,2.52-3.49
			c1.03-0.83,2.17-1.25,3.42-1.25c1.46,0,2.71,0.36,3.75,1.07c1.04,0.71,1.83,1.76,2.37,3.14c0.54,1.38,0.81,3.05,0.81,5.01v8.23
			c0,1.96-0.27,3.63-0.82,5c-0.55,1.37-1.35,2.42-2.39,3.14c-1.05,0.72-2.3,1.08-3.77,1.08
			C1130.1,947.58,1128.93,947.2,1127.94,946.43z"/>
		<path class="st0" d="M1155.36,939.01c0,0.6,0.16,1.06,0.49,1.4c0.32,0.33,0.78,0.5,1.36,0.5h0.97v6.31h-2.87
			c-2.03,0-3.61-0.6-4.74-1.8c-1.13-1.2-1.7-2.88-1.7-5.06v-29.41h6.49V939.01z"/>
		<path class="st0" d="M1167.99,945.64c-1.19-1.3-1.78-3.22-1.78-5.76c0-2.64,0.75-4.65,2.25-6.03c1.49-1.38,3.72-2.07,6.66-2.07
			h4.19l0.35,5.06h-4.37c-1.01,0-1.78,0.25-2.3,0.76c-0.52,0.51-0.79,1.27-0.79,2.28c0,0.8,0.24,1.4,0.72,1.8
			c0.48,0.4,1.21,0.6,2.17,0.6c1.35,0,2.36-0.22,3.04-0.67s1.02-1.12,1.02-2.02l0.47,2.97c-0.07,1.1-0.39,2.02-0.96,2.77
			s-1.32,1.31-2.24,1.69c-0.92,0.38-1.96,0.57-3.11,0.57C1170.95,947.58,1169.18,946.94,1167.99,945.64z M1179.15,929.7
			c0-0.93-0.29-1.65-0.87-2.16c-0.58-0.51-1.41-0.76-2.47-0.76c-0.78,0-1.49,0.18-2.13,0.52c-0.64,0.35-1.14,0.83-1.51,1.45
			l-5.06-2.07c0.51-1.81,1.54-3.23,3.07-4.25c1.53-1.02,3.43-1.53,5.71-1.53c1.94,0,3.61,0.35,5,1.04c1.39,0.69,2.45,1.68,3.18,2.98
			c0.73,1.3,1.1,2.86,1.1,4.69v17.61h-6.01V929.7z"/>
		<path class="st0" d="M1200.03,946.46c-1.49-0.75-2.62-1.84-3.41-3.28c-0.78-1.44-1.17-3.16-1.17-5.18v-7.41
			c0-2.03,0.39-3.77,1.17-5.22c0.78-1.45,1.92-2.56,3.41-3.32c1.49-0.75,3.27-1.13,5.35-1.13c1.78,0,3.3,0.25,4.55,0.76
			c1.26,0.51,2.26,1.3,3.01,2.37c0.75,1.07,1.24,2.42,1.47,4.05l-5.98,2.02c-0.2-1.08-0.56-1.88-1.07-2.39
			c-0.52-0.52-1.19-0.77-2.02-0.77c-1.03,0-1.85,0.34-2.46,1.01c-0.61,0.67-0.91,1.64-0.91,2.88v6.91c0,1.2,0.3,2.13,0.89,2.78
			c0.59,0.66,1.42,0.99,2.48,0.99c0.83,0,1.5-0.25,2.01-0.75c0.51-0.5,0.88-1.26,1.11-2.27l5.98,2.1c-0.25,1.58-0.75,2.89-1.49,3.94
			c-0.75,1.05-1.75,1.82-3,2.31c-1.24,0.49-2.77,0.73-4.56,0.73C1203.3,947.58,1201.52,947.21,1200.03,946.46z"/>
		<path class="st0" d="M1227.53,946.43c-1.49-0.77-2.63-1.89-3.43-3.36c-0.8-1.46-1.2-3.22-1.2-5.26v-6.63
			c0-2.16,0.38-4.01,1.15-5.54c0.76-1.53,1.87-2.7,3.32-3.51c1.45-0.8,3.19-1.21,5.24-1.21c2,0,3.7,0.44,5.12,1.32
			c1.41,0.88,2.49,2.17,3.23,3.85c0.74,1.69,1.11,3.73,1.11,6.13v4.56h-14.41v-4.62h8.3v-1.85c0-1.1-0.31-1.97-0.94-2.6
			c-0.62-0.64-1.42-0.96-2.41-0.96c-1.11,0-1.99,0.36-2.62,1.08c-0.63,0.72-0.95,1.74-0.95,3.06v7.03c0,1.26,0.32,2.23,0.97,2.91
			c0.65,0.67,1.56,1.01,2.74,1.01c0.9,0,1.64-0.22,2.23-0.67c0.59-0.45,1.03-1.11,1.31-1.97l5.46,2.07c-0.5,2.1-1.5,3.67-3.01,4.72
			c-1.5,1.06-3.45,1.58-5.82,1.58C1230.82,947.58,1229.02,947.2,1227.53,946.43z"/>
	</g>
	<g>
		<g>
			<g>
				<path class="st1" d="M395.67,824.3c-5.01-2.99-9.32-5.2-12.91-6.64c-3.6-1.41-9.66-3.45-18.19-6.13
					c-8.51-2.68-14.62-5.03-18.29-7.03c-3.7-2.02-5.52-4.77-5.52-8.27c0-6.37,5.81-9.53,17.41-9.53c11.63,0,23.3,4.01,35,12.04
					l14.03-25.08c-15.88-10.7-31.76-16.05-47.65-16.05c-15.88,0-28.85,3.92-38.87,11.77c-10.04,7.86-15.05,18.02-15.05,30.47
					c0,12.45,5.11,21.86,15.3,28.21c5.01,3.19,9.49,5.62,13.43,7.27c3.92,1.68,9.61,3.67,17.05,6.03
					c7.44,2.33,13.13,4.84,17.05,7.52c3.94,2.68,5.91,5.59,5.91,8.78s-1.44,5.72-4.28,7.64c-2.85,1.92-6.69,2.89-11.53,2.89
					c-15.88,0-30.84-5.42-44.9-16.3l-16.54,23.57c8.68,7.03,18.46,12.33,29.33,15.93c10.87,3.58,21.33,5.4,31.35,5.4
					c15.05,0,27.46-4.04,37.24-12.04c9.78-8.03,14.67-18.7,14.67-31.98C409.7,839.47,405.03,829.99,395.67,824.3z"/>
				<path class="st1" d="M528,787.64v54.58c0,13.98-16.2,25.32-30.18,25.32s-25.34-11.33-25.34-25.32v-54.58h-37.87v53.97
					c0,18.22,5.03,31.98,15.05,41.25c10.04,9.29,22.45,13.94,37.24,13.94c14.81,0,31.74-6.62,41.1-19.82v17.8h37.87V787.64H528z"/>
				<path class="st1" d="M719.55,777.28c-12.28-13.13-26.29-19.68-42-19.68c-15.71,0-29.33,5.76-40.88,17.29v-15.05h-37.6v183.58
					h37.6v-66.45c10.04,13.21,23.28,19.82,39.77,19.82c16.47,0,30.84-6.69,43.12-20.07c12.31-13.38,18.44-30.01,18.44-49.91
					C737.99,806.93,731.86,790.42,719.55,777.28z M690.34,854.28c-6.52,6.93-14.13,10.41-22.81,10.41c-8.71,0-16.1-3.48-22.21-10.41
					c-6.1-6.93-9.14-15.88-9.14-26.85c0-10.94,3.04-20.07,9.14-27.34c6.1-7.27,13.57-10.9,22.45-10.9c8.85,0,16.47,3.67,22.81,11.04
					c6.35,7.34,9.53,16.47,9.53,27.34C700.12,838.43,696.86,847.35,690.34,854.28z"/>
				<path class="st1" d="M766.08,708.7v186.08h37.63V708.7H766.08z"/>
				<path class="st1" d="M967.22,820.55c0-19.58-6.49-34.95-19.43-46.16c-12.96-11.19-28.72-16.78-47.28-16.78
					s-34.66,6.25-48.28,18.8c-13.62,12.55-20.45,29.43-20.45,50.66c0,21.23,6.69,38.16,20.07,50.78s30.3,18.95,50.78,18.95
					c20.5,0,38.33-7.2,53.56-21.57l-21.06-22.84c-8.54,8.88-19.41,13.3-32.61,13.3c-8.2,0-15.54-2.33-22.06-7.03
					c-6.52-4.67-10.36-10.7-11.53-18.05h98.31V820.55z M869.91,813.76c1-7.69,4.6-13.79,10.77-18.29c6.2-4.52,13.01-6.79,20.45-6.79
					c7.42,0,13.74,2.19,18.92,6.52c5.18,4.35,8.2,10.53,9.02,18.56H869.91z"/>
				<path class="st1" d="M1192.17,771.76c-9.7-9.44-22.5-14.16-38.38-14.16c-8.85,0-17.68,2.24-26.44,6.76
					c-8.78,4.52-15.76,10.87-20.94,19.07c-3.53-7.2-8.76-13.3-15.69-18.31c-6.93-5.01-14.67-7.52-23.2-7.52
					c-13.38,0-25.25,5.84-35.61,17.54v-15.3h-37.63v134.94h37.63v-72.72c0-10.53,2.8-18.53,8.39-23.96
					c5.62-5.42,12.04-8.15,19.31-8.15c7.27,0,12.55,2.51,15.81,7.52s4.89,12.89,4.89,23.57v73.74h37.87v-72.72
					c0-10.53,2.77-18.53,8.27-23.96c5.52-5.42,12.04-8.15,19.58-8.15c15.2,0,22.81,10.36,22.81,31.08v73.74h37.87v-82.01
					C1206.71,794.89,1201.87,781.22,1192.17,771.76z"/>
				<path class="st1" d="M1316.3,814.27l51.42-54.67h-47.4l-41.88,44.65V708.7h-37.63v186.08h37.63v-38.87l12.28-12.79l34.37,51.66
					h44.65L1316.3,814.27z"/>
			</g>
			<path class="st0" d="M528,734.01v53.63h-38.31v-53.63c0-2.53,1-4.91,2.8-6.71c1.44-1.43,1.1-4.41-0.33-5.82
				c-1.41-1.43-4.79-0.77-6.23,0.67c-3.19,3.16-4.94,7.39-4.94,11.87v53.63h-8.51v-53.63c0-13.98,13.79-25.32,27.77-25.32
				c6.98,0,15.76,2.85,20.33,7.42C525.18,720.69,528,727.01,528,734.01z"/>
		</g>
	</g>
</g>
</svg>
